<!-- Generated by IcoMoon.io -->
<svg version="1.1" xmlns="http://www.w3.org/2000/svg" width="32" height="32" viewBox="0 0 32 32">
<title>Pod_Plataform_Icon_Color-Fondo</title>
<path d="M5.333 1.333c-2.209 0-4 1.791-4 4v0 21.333c0 2.209 1.791 4 4 4v0h21.333c2.209 0 4-1.791 4-4v0-21.333c0-2.209-1.791-4-4-4v0h-21.333zM5.333 0h21.333c2.946 0 5.333 2.388 5.333 5.333v0 21.333c0 2.946-2.388 5.333-5.333 5.333v0h-21.333c-2.946 0-5.333-2.388-5.333-5.333v0-21.333c0-2.946 2.388-5.333 5.333-5.333v0z"></path>
<path d="M14.375 22.984c-0.003 0-0.007 0-0.011 0-0.206 0-0.396-0.065-0.552-0.175l0.003 0.002c-0.267-0.179-0.44-0.479-0.44-0.82 0-0.002 0-0.005 0-0.007v0c-0.001-0.165-0.015-0.327-0.042-0.484l0.002 0.017c-0.106-0.742-0.448-1.39-0.946-1.88l-0.001-0c-0.505-0.522-1.176-0.879-1.929-0.985l-0.018-0.002c-0.087-0.012-0.187-0.018-0.288-0.018-0.053 0-0.106 0.002-0.159 0.005l0.007-0c-0.023 0.002-0.051 0.003-0.078 0.003-0.32 0-0.605-0.152-0.787-0.387l-0.002-0.002c-0.126-0.17-0.201-0.384-0.201-0.615 0-0.119 0.020-0.233 0.056-0.339l-0.002 0.007c0.168-0.468 0.408-0.871 0.711-1.218l-0.004 0.005 1.64-2.053c3.491-4.001 7.771-7.218 12.608-9.425l0.232-0.095c0.279-0.117 0.602-0.185 0.942-0.185 0.689 0 1.313 0.279 1.765 0.731v0c0.463 0.449 0.75 1.077 0.75 1.771 0 0.342-0.070 0.668-0.196 0.965l0.006-0.016c-2.302 5.062-5.514 9.337-9.463 12.789l-0.043 0.037-2.093 1.68c-0.316 0.241-0.676 0.451-1.061 0.614l-0.033 0.012c-0.111 0.040-0.239 0.064-0.372 0.067l-0.001 0zM11.628 16.891c0.851 0.287 1.578 0.744 2.174 1.334l-0-0c0.576 0.567 1.024 1.264 1.295 2.043l0.011 0.037 1.573-1.267c3.739-3.27 6.747-7.273 8.817-11.796l0.089-0.218c0.025-0.057 0.039-0.124 0.039-0.194 0-0.144-0.061-0.274-0.159-0.366l-0-0c-0.089-0.088-0.211-0.142-0.346-0.142-0.078 0-0.151 0.018-0.217 0.050l0.003-0.001c-4.734 2.163-8.732 5.171-11.965 8.866l-0.035 0.041z"></path>
<path d="M7.604 27.664c-1.788-0.007-3.236-1.459-3.236-3.248 0-0.133 0.008-0.265 0.024-0.394l-0.002 0.016 0.28-2.613c0.282-2.68 2.524-4.753 5.252-4.765h0.001c0.072-0.003 0.156-0.004 0.241-0.004 0.173 0 0.345 0.006 0.515 0.019l-0.023-0.001c1.242 0.16 2.33 0.726 3.146 1.559l0.001 0.001c0.807 0.78 1.358 1.821 1.517 2.987l0.003 0.026c0.034 0.215 0.053 0.462 0.053 0.714 0 0.011-0 0.023-0 0.034v-0.002c0 0.014 0 0.030 0 0.046 0 2.749-2.069 5.015-4.735 5.325l-0.025 0.002-2.64 0.28c-0.11 0.012-0.238 0.019-0.367 0.019-0.002 0-0.004 0-0.006 0h0zM10.137 18.651h-0.133c-0.004-0-0.009-0-0.013-0-1.723 0-3.142 1.299-3.332 2.971l-0.001 0.015-0.28 2.621c-0.005 0.042-0.008 0.090-0.008 0.139 0 0.351 0.14 0.669 0.368 0.901l-0-0c0.226 0.227 0.538 0.367 0.884 0.367 0.046 0 0.091-0.002 0.135-0.007l-0.005 0 2.627-0.28c0.781-0.087 1.468-0.43 1.99-0.942l-0.001 0c0.617-0.623 0.997-1.48 0.997-2.426 0-0.007-0-0.014-0-0.020v0.001c-0.001-0.165-0.015-0.327-0.042-0.484l0.002 0.017c-0.106-0.742-0.448-1.39-0.946-1.88l-0.001-0c-0.505-0.522-1.176-0.879-1.929-0.985l-0.018-0.002c-0.059-0.007-0.127-0.011-0.195-0.011-0.034 0-0.069 0.001-0.103 0.003l0.005-0z"></path>
<path d="M18.428 19.637c-0.551-0.004-0.996-0.449-1-1v-0c-0.004-2.237-1.816-4.050-4.053-4.053h-0c-0.551-0.004-0.996-0.449-1-1v-0c0.004-0.551 0.449-0.996 1-1h0c3.342 0.002 6.051 2.711 6.053 6.053v0c0 0 0 0.001 0 0.001 0 0.552-0.447 0.999-0.999 0.999-0 0-0.001 0-0.001 0h0z"></path>
</svg>
