<svg width="28.675" height="28.676" version="1.1" viewBox="0 0 28.675 28.676" xmlns="http://www.w3.org/2000/svg">
 <title>copy</title>
 <path d="m7.5234 8.0391c-2.4617 0-4.4045 0.49824-5.7148 1.8086-1.3104 1.3104-1.8086 3.2532-1.8086 5.7148v5.5898c0 2.4631 0.49806 4.4067 1.8086 5.7168 1.3105 1.3101 3.2534 1.8066 5.7148 1.8066h5.5898c2.4614 0 4.4043-0.49658 5.7148-1.8066 1.3105-1.3101 1.8086-3.2537 1.8086-5.7168v-5.5898c0-2.4614-0.49658-4.4043-1.8066-5.7148-1.3101-1.3105-3.2537-1.8086-5.7168-1.8086zm0 2h5.5898c2.1959 0 3.516 0.43569 4.3027 1.2227 0.78668 0.78697 1.2207 2.1062 1.2207 4.3008v5.5898c0 2.1959-0.43569 3.516-1.2227 4.3027-0.78697 0.78669-2.1062 1.2207-4.3008 1.2207h-5.5898c-2.1945 0-3.5138-0.43402-4.3008-1.2207-0.78697-0.78669-1.2227-2.1068-1.2227-4.3027v-5.5898c0-2.1943 0.43551-3.5136 1.2227-4.3008 0.78714-0.78714 2.1064-1.2227 4.3008-1.2227z" color="#000000" stroke-linecap="round" stroke-linejoin="round" style="-inkscape-stroke:none"/>
 <path d="m15.561 0c-2.4617 0-4.4045 0.4987-5.7148 1.8086-1.3104 1.3099-1.8086 3.2507-1.8086 5.7109v1.4668a1.0001 1.0001 0 0 0 1 1h4.125c2.1946 0 3.5138 0.43597 4.3008 1.2227 0.78697 0.78669 1.2227 2.1049 1.2227 4.3008v4.127a1.0001 1.0001 0 0 0 1 1h1.4668c2.4614 0 4.4043-0.49658 5.7148-1.8066 1.3105-1.3101 1.8086-3.2537 1.8086-5.7168v-5.5898c0-2.4614-0.49853-4.4043-1.8086-5.7148-1.3101-1.3105-3.2518-1.8086-5.7148-1.8086zm0 2h5.5918c2.1959 0 3.5141 0.43569 4.3008 1.2227 0.78669 0.78697 1.2227 2.1062 1.2227 4.3008v5.5898c0 2.1959-0.43569 3.516-1.2227 4.3027-0.78697 0.78668-2.1062 1.2207-4.3008 1.2207h-0.4668v-3.127c0-2.4631-0.49806-4.4048-1.8086-5.7148-1.3105-1.3101-3.2534-1.8086-5.7148-1.8086h-3.125v-0.4668c0-2.1927 0.43552-3.51 1.2227-4.2969 0.78714-0.78685 2.1064-1.2227 4.3008-1.2227z" color="#000000" stroke-linecap="round" stroke-linejoin="round" style="-inkscape-stroke:none"/>
</svg>
