<!-- Generated by IcoMoon.io -->
<svg version="1.1" xmlns="http://www.w3.org/2000/svg" width="32" height="32" viewBox="0 0 32 32">
<title>designs</title>
<path fill="#000" opacity="0.07" d="M32 16c0 8.837-7.163 16-16 16s-16-7.163-16-16c0-8.837 7.163-16 16-16s16 7.163 16 16z"></path>
<path fill="#000" d="M21.178 23.418c-0.016 0-0.035 0.001-0.055 0.001-0.611 0-1.16-0.261-1.544-0.677l-0.001-0.001q-1.485-1.479-2.959-2.967c-0.144-0.146-0.226-0.15-0.372 0-1.072 1.084-2.166 2.145-3.224 3.241-0.234 0.243-0.562 0.394-0.925 0.394s-0.691-0.151-0.925-0.394l-0-0c-0.586-0.646-1.229-1.241-1.847-1.861-0.243-0.219-0.396-0.534-0.396-0.886s0.152-0.667 0.395-0.885l0.001-0.001q1.63-1.635 3.267-3.262c0.15-0.15 0.142-0.229 0-0.372q-1.123-1.111-2.227-2.24c-0.404-0.42-0.696-0.95-0.826-1.541l-0.004-0.021c-0.175-0.733-0.364-1.463-0.55-2.194-0.024-0.081-0.038-0.175-0.038-0.271 0-0.014 0-0.027 0.001-0.041l-0 0.002c0.002-0.22 0.18-0.397 0.4-0.397 0.001 0 0.002 0 0.003 0h-0c0.19 0.004 0.371 0.037 0.54 0.096l-0.012-0.004c0.695 0.172 1.389 0.357 2.085 0.524 0.648 0.173 1.202 0.511 1.633 0.968l0.002 0.002q1 0.996 1.997 1.996c0.283 0.283 0.22 0.262 0.491-0.008 1.058-1.054 2.128-2.1 3.164-3.174 0.233-0.241 0.559-0.39 0.92-0.39 0.357 0 0.68 0.146 0.912 0.382l0 0c0.578 0.634 1.186 1.246 1.822 1.821 0.249 0.235 0.404 0.567 0.404 0.935 0 0.366-0.153 0.695-0.398 0.929l-0 0c-1.1 1.057-2.159 2.15-3.241 3.224-0.137 0.136-0.15 0.213-0.006 0.355 0.994 0.981 1.977 1.974 2.968 2.957 0.431 0.401 0.7 0.971 0.7 1.604 0 0.558-0.209 1.066-0.552 1.453l0.002-0.002c-0.384 0.432-0.942 0.703-1.563 0.703-0.015 0-0.030-0-0.044-0l0.002 0zM12.532 19.274c-0-0.007-0.001-0.015-0.001-0.022 0-0.241 0.195-0.436 0.437-0.436 0.062 0 0.121 0.013 0.175 0.036l-0.003-0.001c0.106 0.047 0.196 0.114 0.268 0.196l0.001 0.001c0.316 0.328 0.638 0.65 0.95 0.98 0.114 0.12 0.211 0.15 0.331 0.007 0.088-0.103 0.181-0.197 0.281-0.283l0.003-0.003c0.126-0.109 0.121-0.2 0-0.313-0.171-0.157-0.329-0.32-0.477-0.492l-0.006-0.008c-0.072-0.078-0.116-0.182-0.116-0.297 0-0.123 0.050-0.234 0.132-0.313l0-0c0.082-0.081 0.195-0.131 0.319-0.131 0.112 0 0.215 0.041 0.294 0.108l-0.001-0.001c0.083 0.068 0.157 0.139 0.227 0.213l0.001 0.001c0.437 0.433 0.431 0.427 0.867-0.008 0.137-0.137 0.117-0.221-0.011-0.344-0.345-0.331-0.681-0.671-1.017-1.011-0.112-0.088-0.184-0.223-0.184-0.375 0-0.124 0.048-0.237 0.125-0.321l-0 0c0.082-0.085 0.197-0.139 0.325-0.139 0.15 0 0.284 0.074 0.365 0.187l0.001 0.001c0.261 0.256 0.513 0.523 0.775 0.777 0.49 0.475 0.328 0.492 0.855-0.014 0.131-0.126 0.112-0.22-0.009-0.334-0.163-0.153-0.323-0.311-0.473-0.477-0.074-0.077-0.12-0.182-0.12-0.298 0-0.113 0.044-0.216 0.115-0.293l-0 0c0.080-0.095 0.198-0.155 0.331-0.155 0.105 0 0.201 0.037 0.275 0.099l-0.001-0.001c0.095 0.078 0.18 0.158 0.259 0.243l0.001 0.002c0.424 0.42 0.419 0.416 0.85-0.014 0.131-0.13 0.134-0.216 0-0.346-0.356-0.341-0.704-0.69-1.050-1.043-0.096-0.085-0.156-0.209-0.156-0.347 0-0.201 0.129-0.373 0.309-0.436l0.003-0.001c0.041-0.012 0.088-0.019 0.136-0.019 0.157 0 0.297 0.072 0.388 0.185l0.001 0.001c0.255 0.25 0.506 0.508 0.759 0.761 0.428 0.429 0.424 0.425 0.85 0 0.13-0.129 0.143-0.222 0.006-0.35-0.172-0.158-0.331-0.319-0.482-0.488l-0.006-0.007c-0.065-0.075-0.105-0.174-0.105-0.281 0-0.113 0.044-0.216 0.115-0.292l-0 0c0.078-0.097 0.196-0.158 0.328-0.158 0.097 0 0.186 0.033 0.257 0.088l-0.001-0.001c0.108 0.086 0.205 0.175 0.294 0.271l0.001 0.002c0.4 0.4 0.4 0.4 0.794 0.007 0.207-0.207 0.208-0.209 0.005-0.414-0.343-0.344-0.692-0.681-1.028-1.031-0.088-0.083-0.143-0.201-0.143-0.331 0-0.123 0.049-0.234 0.128-0.316l-0 0c0.086-0.080 0.202-0.128 0.33-0.128 0.124 0 0.238 0.047 0.324 0.123l-0-0c0.057 0.050 0.106 0.105 0.158 0.159 0.314 0.32 0.63 0.637 0.939 0.961 0.104 0.108 0.186 0.1 0.276-0.008 0.038-0.046 0.084-0.085 0.126-0.127 0.257-0.26 0.259-0.346-0.005-0.608q-0.878-0.881-1.759-1.758c-0.242-0.241-0.341-0.242-0.577-0.006q-4.944 4.942-9.886 9.886c-0.237 0.237-0.236 0.335 0.005 0.577q0.822 0.826 1.646 1.65c0.408 0.409 0.475 0.404 0.866-0.026 0.040-0.029 0.066-0.075 0.066-0.128 0-0.056-0.030-0.106-0.075-0.133l-0.001-0c-0.167-0.16-0.332-0.323-0.49-0.492-0.079-0.083-0.128-0.195-0.128-0.319 0-0.111 0.040-0.214 0.105-0.294l-0.001 0.001c0.085-0.089 0.204-0.145 0.336-0.145 0.112 0 0.214 0.040 0.294 0.106l-0.001-0.001c0.076 0.064 0.144 0.13 0.209 0.199l0.001 0.001c0.45 0.447 0.446 0.442 0.893-0.004 0.133-0.133 0.108-0.209-0.011-0.324-0.344-0.331-0.678-0.674-1.018-1.009-0.107-0.090-0.175-0.224-0.176-0.374v-0zM18.818 20.639c0.064-0.008 0.1-0.058 0.143-0.1 0.497-0.495 0.99-0.994 1.489-1.486 0.1-0.1 0.11-0.173 0.005-0.276q-0.741-0.73-1.471-1.472c-0.105-0.107-0.174-0.096-0.273 0.006q-0.746 0.758-1.503 1.503c-0.11 0.108-0.090 0.177 0.008 0.273 0.488 0.482 0.971 0.97 1.458 1.454 0.041 0.041 0.078 0.090 0.145 0.097zM21.192 22.535c0.522-0.006 0.966-0.334 1.144-0.794l0.003-0.009c0.063-0.139 0.099-0.301 0.099-0.472 0-0.327-0.134-0.622-0.349-0.835l-0-0c-0.237-0.258-0.495-0.497-0.738-0.75-0.093-0.1-0.16-0.1-0.256-0.003q-0.755 0.765-1.52 1.52c-0.096 0.094-0.1 0.161 0 0.256 0.265 0.25 0.517 0.517 0.782 0.768 0.22 0.196 0.512 0.317 0.832 0.317h0zM10.226 10.153c-0.203-0.018-0.185 0.097-0.155 0.215 0.12 0.462 0.259 0.921 0.36 1.386 0.118 0.525 0.388 0.974 0.759 1.312l0.002 0.002c0.123 0.116 0.197 0.136 0.325 0.005q0.717-0.739 1.457-1.457c0.129-0.126 0.118-0.2 0-0.325-0.341-0.374-0.789-0.643-1.297-0.76l-0.017-0.003c-0.489-0.106-0.97-0.251-1.435-0.375zM15.149 13.494c-0.024-0.035-0.049-0.065-0.075-0.094l0.001 0.001c-0.395-0.396-0.79-0.79-1.184-1.188-0.090-0.091-0.159-0.076-0.244 0.009q-0.755 0.761-1.516 1.516c-0.096 0.095-0.1 0.165-0.005 0.261q0.589 0.581 1.171 1.169c0.085 0.085 0.15 0.1 0.24 0.005 0.508-0.514 1.021-1.024 1.532-1.536 0.047-0.032 0.078-0.084 0.081-0.144v-0z"></path>
</svg>
