<!-- Generated by IcoMoon.io -->
<svg version="1.1" xmlns="http://www.w3.org/2000/svg" width="30" height="32" viewBox="0 0 30 32">
<title>desktop</title>
<path d="M7.208 0h15.682c2.962 0 4.616 0.467 5.706 1.611s1.515 2.847 1.515 5.917v9.41c0 3.081-0.439 4.799-1.506 5.928s-2.736 1.605-5.695 1.605h-15.785c-2.921 0-4.552-0.469-5.631-1.62s-1.494-2.845-1.494-5.913v-9.41c0-3.069 0.439-4.784 1.506-5.915s2.746-1.613 5.702-1.613zM22.903 22.583c2.354 0 3.649-0.305 4.328-1.022 0.668-1.039 1.064-2.307 1.064-3.668 0-0.337-0.024-0.669-0.072-0.993l0.004 0.037v-9.41c0.043-0.288 0.068-0.621 0.068-0.96 0-1.36-0.397-2.627-1.081-3.691l0.016 0.027c-0.685-0.715-1.984-1.022-4.342-1.022h-15.682c-2.351 0-3.645 0.307-4.328 1.028-0.667 1.038-1.064 2.305-1.064 3.665 0 0.336 0.024 0.667 0.071 0.99l-0.004-0.037v9.41c-0.042 0.287-0.067 0.619-0.067 0.956 0 1.355 0.392 2.618 1.068 3.683l-0.017-0.028c0.676 0.719 1.948 1.026 4.259 1.026h15.778z"></path>
<path d="M15.008 32c-0.52 0-0.941-0.421-0.941-0.941v0-7.528c0-0.52 0.421-0.941 0.941-0.941v0c0.52 0 0.941 0.421 0.941 0.941v0 7.528c0 0.52-0.421 0.941-0.941 0.941v0z"></path>
<path d="M29.17 18.561h-28.229c-0.52 0-0.941-0.421-0.941-0.941v0c0-0.52 0.421-0.941 0.941-0.941v0h28.229c0.52 0 0.941 0.421 0.941 0.941v0c0 0.52-0.421 0.941-0.941 0.941v0z"></path>
<path d="M21.595 31.996h-13.173c-0.52 0-0.941-0.421-0.941-0.941v0c0-0.52 0.421-0.941 0.941-0.941v0h13.173c0.52 0 0.941 0.421 0.941 0.941v0c0 0.52-0.421 0.941-0.941 0.941v0z"></path>
</svg>
