<!-- Generated by IcoMoon.io -->
<svg version="1.1" xmlns="http://www.w3.org/2000/svg" width="32" height="32" viewBox="0 0 32 32">
<title>ecommerce</title>
<path fill="#000" opacity="0.06" d="M32 16c0 8.837-7.163 16-16 16s-16-7.163-16-16c0-8.837 7.163-16 16-16s16 7.163 16 16z"></path>
<path fill="#000" d="M15.944 22.855c-1.678 0-3.356-0.018-5.033 0.010-0.015 0.001-0.033 0.001-0.052 0.001-0.649 0-1.175-0.526-1.175-1.175 0-0.018 0-0.036 0.001-0.054l-0 0.003c0.012-1.887 0-3.773 0.008-5.659 0.001-0.018 0.001-0.039 0.001-0.061 0-0.307-0.091-0.592-0.248-0.83l0.004 0.006c-0.274-0.398-0.437-0.89-0.437-1.42 0-0.208 0.025-0.41 0.072-0.603l-0.004 0.017q0.381-1.629 0.817-3.244c0.097-0.489 0.522-0.853 1.033-0.853 0.049 0 0.096 0.003 0.143 0.010l-0.005-0.001h9.699c0.055-0.010 0.118-0.015 0.183-0.015 0.556 0 1.016 0.413 1.089 0.949l0.001 0.006c0.289 1.077 0.566 2.158 0.805 3.246 0.032 0.155 0.050 0.333 0.050 0.515 0 1.026-0.582 1.915-1.433 2.358l-0.015 0.007c-0.355 0.191-0.777 0.303-1.225 0.303-0.751 0-1.428-0.315-1.906-0.82l-0.001-0.001c-0.221-0.228-0.221-0.228-0.443 0-0.475 0.507-1.149 0.823-1.896 0.823-0.758 0-1.44-0.325-1.915-0.843l-0.002-0.002c-0.204-0.212-0.198-0.204-0.397-0.007-0.487 0.526-1.18 0.854-1.951 0.854-0.264 0-0.518-0.038-0.759-0.11l0.019 0.005c-0.213-0.054-0.239 0.003-0.238 0.193q0.008 2.559 0 5.119c0 0.209 0.068 0.272 0.272 0.272 0.835-0.009 1.671 0 2.506-0.004 0.272 0 0.282-0.009 0.282-0.278q0-1.62 0-3.24c-0.001-0.019-0.002-0.042-0.002-0.064 0-0.122 0.024-0.238 0.066-0.344l-0.002 0.006c0.075-0.17 0.243-0.287 0.437-0.287 0.011 0 0.021 0 0.032 0.001l-0.001-0h3.24c0.015-0.002 0.032-0.002 0.050-0.002 0.282 0 0.511 0.229 0.511 0.511 0 0.023-0.002 0.046-0.004 0.068l0-0.003c0.009 0.447 0 0.893 0 1.339 0 0.677 0.007 1.354-0.007 2.030 0 0.196 0.062 0.266 0.261 0.264q1.274-0.012 2.548 0c0.204 0 0.257-0.078 0.256-0.268-0.007-1.267 0-2.535-0.007-3.802-0.003-0.022-0.005-0.048-0.005-0.074 0-0.232 0.143-0.43 0.347-0.511l0.004-0.001c0.057-0.025 0.124-0.040 0.194-0.040 0.202 0 0.376 0.123 0.45 0.299l0.001 0.003c0.037 0.087 0.058 0.188 0.058 0.295 0 0.007-0 0.015-0 0.022l0-0.001c0 1.311 0.007 2.621 0 3.931 0.001 0.014 0.001 0.030 0.001 0.046 0 0.612-0.496 1.108-1.108 1.108-0.019 0-0.038-0-0.057-0.001l0.003 0q-2.561 0.001-5.121 0zM17.558 12.067v-1.814c0-0.148-0.023-0.25-0.208-0.248q-1.371 0.008-2.742 0c-0.146 0-0.204 0.058-0.204 0.204 0 1.209-0.014 2.419 0.011 3.628 0.010 0.557 0.324 1.038 0.783 1.285l0.008 0.004c0.225 0.131 0.494 0.209 0.782 0.209 0.865 0 1.567-0.7 1.57-1.565v-0c0.009-0.564 0-1.134 0-1.702zM13.351 12.033v-1.793c0-0.159-0.041-0.238-0.218-0.236-0.677 0.006-1.354 0.005-2.031 0-0.009-0.001-0.018-0.002-0.028-0.002-0.118 0-0.216 0.090-0.228 0.205l-0 0.001c-0.257 1.041-0.526 2.079-0.777 3.121-0.028 0.11-0.043 0.236-0.043 0.366 0 0.379 0.135 0.727 0.359 0.998l-0.002-0.003c0.293 0.4 0.76 0.657 1.288 0.657 0.189 0 0.37-0.033 0.539-0.094l-0.011 0.004c0.669-0.209 1.146-0.823 1.146-1.548 0-0.006-0-0.013-0-0.019v0.001c0.011-0.55 0.007-1.104 0.007-1.659zM19.806 10.006c-0.324 0-0.648 0.005-0.972 0-0.17-0.004-0.248 0.050-0.246 0.234 0.007 1.166-0.007 2.331 0.007 3.496 0.016 0.896 0.745 1.616 1.643 1.616 0.005 0 0.010-0 0.015-0h-0.001c0.898-0.028 1.615-0.76 1.62-1.661v-0.001c-0.031-0.394-0.11-0.758-0.231-1.103l0.009 0.030c-0.197-0.803-0.402-1.603-0.599-2.406-0.015-0.118-0.115-0.208-0.235-0.208-0.014 0-0.028 0.001-0.042 0.004l0.001-0c-0.323 0.003-0.647-0.001-0.97-0.001zM17.072 20.287c0-0.46-0.007-0.921 0-1.381 0-0.157-0.058-0.219-0.215-0.217-0.605 0.005-1.209 0.004-1.813 0-0.143 0-0.209 0.050-0.209 0.204q0.007 1.371 0 2.741c0 0.157 0.060 0.216 0.216 0.216q0.896-0.006 1.791 0c0.165 0 0.232-0.055 0.229-0.225-0.007-0.446 0-0.892 0-1.338z"></path>
</svg>
