<svg width="13.88" height="19.394" version="1.1" viewBox="0 0 13.88 19.394" xmlns="http://www.w3.org/2000/svg">
 <path d="m1.304 19.094a2.834 2.834 0 0 1-1.2738-2.5137l-0.030141-1.5878a4.236 4.236 0 0 1 0.49101-1.9104l6.485-11.232a3.7 3.7 0 0 1 6.4086 3.7l-6.48 11.224a4.236 4.236 0 0 1-1.409 1.3804l-1.3901 0.76779a2.771 2.771 0 0 1-2.8015 0.17234zm9.985-17.295a2.206 2.206 0 0 0-3.0053 0.80526l-6.48 11.224a2.807 2.807 0 0 0-0.29653 1.1336l0.030141 1.5878a1.39 1.39 0 0 0 0.52165 1.2365 1.413 1.413 0 0 0 1.3316-0.16648l1.3901-0.7678a2.807 2.807 0 0 0 0.83347-0.82361l6.48-11.224a2.206 2.206 0 0 0-0.80526-3.0053z" data-name="Vector"/>
 <path d="m11.344 7.6049-5.1182-2.955a0.755 0.755 0 0 1-0.27452-1.0245 0.755 0.755 0 0 1 1.0245-0.27452l5.1182 2.955a0.755 0.755 0 0 1 0.27452 1.0245 0.755 0.755 0 0 1-1.0245 0.27452z" data-name="Vector"/>
</svg>
