<!-- Generated by IcoMoon.io -->
<svg version="1.1" xmlns="http://www.w3.org/2000/svg" width="32" height="32" viewBox="0 0 32 32">
<title>email</title>
<path fill="#000" opacity="0.06" d="M32 16c0 8.837-7.163 16-16 16s-16-7.163-16-16 7.163-16 16-16 16 7.163 16 16z"></path>
<path fill="#000" d="M16.029 9.797q3.571 0 7.14 0c0.032-0.002 0.069-0.004 0.106-0.004 0.747 0 1.371 0.53 1.516 1.234l0.002 0.010c0.020 0.105 0.031 0.225 0.031 0.348 0 0.022-0 0.044-0.001 0.065l0-0.003q0 4.534 0 9.069c0.004 0.040 0.006 0.087 0.006 0.134 0 0.858-0.695 1.553-1.553 1.553-0.039 0-0.077-0.001-0.115-0.004l0.005 0q-3.692 0.008-7.387 0.004-3.472 0-6.946 0c-0.031 0.002-0.067 0.003-0.104 0.003-0.749 0-1.374-0.532-1.518-1.239l-0.002-0.010c-0.020-0.105-0.032-0.225-0.032-0.349 0-0.022 0-0.043 0.001-0.065l-0 0.003q0-4.534 0-9.069c-0.004-0.040-0.006-0.086-0.006-0.132 0-0.86 0.697-1.557 1.557-1.557 0.047 0 0.093 0.002 0.138 0.006l-0.006-0q3.585-0.004 7.168 0zM9.002 10.832c0.074 0.089 0.11 0.142 0.154 0.185q3.176 3.19 6.358 6.38c0.115 0.147 0.292 0.241 0.491 0.241 0.21 0 0.396-0.104 0.508-0.264l0.001-0.002q3.162-3.17 6.319-6.344c0.051-0.051 0.149-0.089 0.111-0.198zM22.984 21.162c-0.021-0.041-0.043-0.076-0.068-0.109l0.002 0.002q-2.080-2.090-4.159-4.183c-0.133-0.135-0.206-0.081-0.31 0.025-0.424 0.433-0.851 0.864-1.284 1.288-0.295 0.303-0.707 0.491-1.163 0.491s-0.868-0.188-1.162-0.491l-0-0c-0.42-0.411-0.838-0.824-1.241-1.251-0.155-0.164-0.243-0.177-0.409-0.006-1.316 1.335-2.642 2.658-3.965 3.988-0.066 0.067-0.166 0.115-0.177 0.245zM8.242 11.602v8.798c0.033-0.021 0.062-0.043 0.090-0.067l-0.001 0.001q2.091-2.095 4.184-4.188c0.13-0.129 0.099-0.196-0.012-0.306-0.486-0.476-0.961-0.961-1.442-1.44-0.929-0.925-1.861-1.848-2.818-2.799zM23.769 11.583c-0.068 0.058-0.097 0.081-0.124 0.106q-2.073 2.078-4.152 4.152c-0.161 0.16-0.082 0.23 0.033 0.345q2.027 2.027 4.050 4.057c0.051 0.051 0.089 0.146 0.191 0.123z"></path>
</svg>
