<svg width="22" height="22" version="1.1" viewBox="0 0 22 22" xmlns="http://www.w3.org/2000/svg">
 <g id="_3Pod_Plataform_Icon_Emoji" data-name="3Pod_Plataform_Icon_Emoji">
  <path d="M 22,11 A 11,11 0 1 1 18.778,3.222 11,11 0 0 1 22,11" fill="#fbcc58" data-name="Path 1237"/>
  <path transform="translate(1.125,2.625)" d="m3 8.386c0 2.771 1.383 8.239 6.875 8.239s6.875-5.468 6.875-8.239c0-0.219-2.214-1.386-6.875-1.386s-6.875 1.167-6.875 1.386z" fill="#512614" data-name="Path 1238"/>
  <path transform="translate(1.703,4.125)" d="m4.541 13.062a5.688 5.688 0 0 0 4.77 2.063 5.659 5.659 0 0 0 4.756-2.063 6.211 6.211 0 0 0-4.756-2.062 6.248 6.248 0 0 0-4.77 2.062z" fill="#ef4864" data-name="Path 1239"/>
  <path transform="translate(1.125,1.125)" d="m7.418 4.573a1.045 1.045 0 0 1 0.564 1.083c-0.1 0.349-0.267 0.507-0.58 0.51a9.269 9.269 0 0 0-3.446 0.842 1.107 1.107 0 0 1-0.457 0.117 0.477 0.477 0 0 1-0.45-0.326c-0.092-0.216-0.1-0.534 0.38-0.822a8.092 8.092 0 0 1 2.625-0.83 9.731 9.731 0 0 0-1.808-1.057c-0.587-0.267-0.523-0.628-0.444-0.825 0.175-0.436 0.837-0.27 1.482 0.036a12.376 12.376 0 0 1 2.134 1.272zm4.918 0a12.314 12.314 0 0 1 2.131-1.273c0.646-0.305 1.306-0.472 1.482-0.036 0.078 0.2 0.143 0.558-0.444 0.825a9.663 9.663 0 0 0-1.805 1.057 8.054 8.054 0 0 1 2.622 0.83c0.48 0.289 0.47 0.605 0.379 0.822a0.476 0.476 0 0 1-0.45 0.326 1.107 1.107 0 0 1-0.457-0.117 9.282 9.282 0 0 0-3.443-0.842c-0.313 0-0.483-0.161-0.58-0.509a1.047 1.047 0 0 1 0.564-1.083z" fill="#263454" data-name="Path 1240"/>
 </g>
</svg>
