<!-- Generated by IcoMoon.io -->
<svg version="1.1" xmlns="http://www.w3.org/2000/svg" width="32" height="32" viewBox="0 0 32 32">
<title>entrepreneur</title>
<path fill="#000" opacity="0.06" d="M32 16c0 8.837-7.163 16-16 16s-16-7.163-16-16c0-8.837 7.163-16 16-16s16 7.163 16 16z"></path>
<path fill="#000" d="M14.842 18.151c-0.002-0.028-0.003-0.061-0.003-0.094s0.001-0.066 0.003-0.098l-0 0.004c0.015-0.077 0.023-0.166 0.023-0.257 0-0.403-0.167-0.766-0.436-1.026l-0-0c-0.129-0.142-0.207-0.331-0.207-0.539 0-0.025 0.001-0.049 0.003-0.073l-0 0.003q0-0.643 0-1.287c0-0.115 0.024-0.24-0.129-0.292-0.014-0.007-0.026-0.018-0.034-0.031l-0-0c-0.11-0.136-0.020-0.34 0.259-0.545 0.037-0.035 0.086-0.057 0.141-0.057 0.090 0 0.167 0.059 0.194 0.14l0 0.001c0.049 0.101 0.125 0.104 0.214 0.104q0.791 0 1.583 0c0.007 0.001 0.014 0.001 0.022 0.001 0.081 0 0.152-0.045 0.188-0.112l0.001-0.001c0.114-0.18 0.28-0.174 0.393 0.003 0.038 0.059 0.085 0.108 0.14 0.147l0.002 0.001c0.143 0.108 0.151 0.251 0.007 0.349-0.073 0.047-0.12 0.127-0.12 0.219 0 0.013 0.001 0.025 0.003 0.037l-0-0.001c0 0.398-0.010 0.796 0.004 1.194 0.003 0.029 0.004 0.063 0.004 0.097 0 0.304-0.12 0.581-0.316 0.784l0-0c-0.196 0.194-0.318 0.463-0.318 0.761 0 0.039 0.002 0.077 0.006 0.115l-0-0.005c0.024 0.404 0.011 0.811 0 1.217 0 0.148 0.043 0.204 0.204 0.204 0.749 0.021 0.765 0.025 0.749-0.698-0.001-0.020-0.002-0.044-0.002-0.068 0-0.454 0.253-0.848 0.626-1.050l0.006-0.003c1.109-0.673 1.878-1.81 2.041-3.135l0.002-0.021c0.007-0.046 0.010-0.093 0.019-0.136 0.009-0.111 0.101-0.198 0.213-0.198 0.014 0 0.027 0.001 0.040 0.004l-0.001-0c0.11 0.007 0.196 0.097 0.196 0.208 0 0.015-0.002 0.030-0.005 0.044l0-0.001c-0.027 0.337-0.090 0.649-0.187 0.946l0.008-0.029c-0.352 1.15-1.096 2.092-2.073 2.689l-0.021 0.012c-0.251 0.125-0.42 0.379-0.42 0.673 0 0.027 0.001 0.053 0.004 0.079l-0-0.003c0.004 0.066 0.006 0.144 0.006 0.222s-0.002 0.156-0.007 0.233l0-0.011c-0.002 0.019-0.002 0.041-0.002 0.064 0 0.179 0.054 0.346 0.147 0.484l-0.002-0.003c0.074 0.137 0.117 0.3 0.117 0.472 0 0.14-0.028 0.272-0.079 0.393l0.003-0.007c-0.022 0.044-0.035 0.095-0.035 0.149 0 0.025 0.003 0.049 0.008 0.072l-0-0.002c0.121 0.398 0.198 0.797-0.192 1.113-0.054 0.044-0.037 0.093-0.033 0.148 0.009 0.116 0.012 0.234 0.012 0.351 0.003 0.021 0.004 0.045 0.004 0.070 0 0.332-0.269 0.601-0.601 0.601-0.030 0-0.059-0.002-0.088-0.006l0.003 0c-0.237-0.008-0.34 0.048-0.409 0.289-0.156 0.449-0.575 0.765-1.069 0.765-0.512 0-0.945-0.341-1.083-0.809l-0.002-0.008c-0.047-0.201-0.136-0.238-0.325-0.235-0.523 0.008-0.749-0.214-0.744-0.722 0.004-0.031 0.007-0.067 0.007-0.103 0-0.2-0.072-0.383-0.191-0.525l0.001 0.001c-0.091-0.138-0.145-0.307-0.145-0.488 0-0.14 0.032-0.272 0.089-0.39l-0.002 0.005c0.014-0.043 0.021-0.092 0.021-0.142s-0.008-0.1-0.022-0.146l0.001 0.003c-0.048-0.113-0.076-0.244-0.076-0.382 0-0.224 0.074-0.43 0.199-0.596l-0.002 0.003c0.020-0.023 0.052-0.051 0.052-0.076 0.012-0.126 0.018-0.273 0.018-0.421 0-0.262-0.021-0.519-0.061-0.77l0.004 0.028c-0.044-0.17-0.192-0.259-0.334-0.351-1.401-0.822-2.326-2.321-2.326-4.035 0-0.151 0.007-0.301 0.021-0.448l-0.001 0.019c0.212-2.278 1.971-4.087 4.206-4.376l0.024-0.003c0.175-0.023 0.347-0.012 0.364 0.194s-0.171 0.232-0.332 0.255c-1.788 0.243-3.221 1.527-3.679 3.213l-0.007 0.031c-0.086 0.322-0.136 0.691-0.136 1.071 0 1.538 0.809 2.887 2.024 3.645l0.018 0.011c0.399 0.211 0.666 0.623 0.666 1.098 0 0.036-0.002 0.071-0.004 0.106l0-0.005c-0.024 0.639-0.005 0.63 0.661 0.643 0.236 0.005 0.309-0.068 0.29-0.29s-0.005-0.453-0.005-0.68zM15.296 18.118c0 0.164-0.004 0.328 0 0.492 0.016 0.59-0.125 0.492 0.537 0.507 0.152 0.003 0.191-0.060 0.189-0.195-0.005-0.398 0.020-0.797-0.008-1.193-0.006-0.048-0.009-0.104-0.009-0.161 0-0.405 0.166-0.77 0.434-1.033l0-0c0.121-0.123 0.195-0.292 0.195-0.479 0-0.019-0.001-0.038-0.002-0.057l0 0.002c-0.010-0.413-0.009-0.827 0-1.24 0.003-0.159-0.042-0.22-0.214-0.216-0.503 0.010-1.007 0.011-1.51 0-0.189-0.005-0.227 0.068-0.223 0.232q0.015 0.62 0 1.24c-0.001 0.015-0.002 0.032-0.002 0.050 0 0.18 0.072 0.343 0.189 0.462l-0-0c0.271 0.257 0.439 0.62 0.439 1.022 0 0.069-0.005 0.136-0.014 0.202l0.001-0.008c-0.004 0.058-0.006 0.125-0.006 0.193 0 0.064 0.002 0.127 0.005 0.189l-0-0.009zM15.675 19.562c-0.583 0-1.166 0.008-1.748-0.003-0.24-0.005-0.272 0.116-0.272 0.306s0.020 0.332 0.278 0.33q1.725-0.012 3.449 0c0.25 0 0.288-0.12 0.288-0.321s-0.041-0.322-0.291-0.316c-0.57 0.012-1.137 0.003-1.704 0.003zM15.659 21.261h1.702c0.276 0 0.297-0.033 0.307-0.318 0.008-0.211-0.054-0.313-0.296-0.311q-1.712 0.013-3.423 0c-0.242 0-0.302 0.101-0.295 0.312 0.010 0.285 0.031 0.317 0.308 0.317 0.566 0.001 1.13 0 1.697 0zM15.655 22.334c0.486 0 0.973-0.005 1.459 0 0.258 0.004 0.244-0.159 0.246-0.33s-0.018-0.302-0.252-0.3q-1.447 0.010-2.894 0c-0.252 0-0.257 0.14-0.259 0.318s0.020 0.319 0.265 0.314c0.478-0.010 0.956-0.002 1.435-0.002zM15.661 22.779h-0.526c-0.136 0-0.163 0.054-0.117 0.174 0.105 0.256 0.352 0.433 0.64 0.433 0.287 0 0.533-0.175 0.637-0.424l0.002-0.005c0.057-0.142 0.005-0.182-0.136-0.179-0.165 0.003-0.332 0-0.5 0z"></path>
<path fill="#000" d="M16.183 8.858c1.183 0.147 2.218 0.69 2.988 1.49l0.002 0.002c0.7 0.712 1.183 1.639 1.341 2.673l0.003 0.027c0.024 0.161 0.016 0.307-0.178 0.335s-0.246-0.108-0.272-0.268c-0.317-1.983-1.885-3.521-3.858-3.787l-0.023-0.003c-0.171-0.020-0.34-0.074-0.289-0.298 0.023-0.103 0.114-0.18 0.223-0.18 0.022 0 0.044 0.003 0.064 0.009l-0.002-0z"></path>
<path fill="#000" d="M19.397 12.807c0.001 0.007 0.001 0.016 0.001 0.024 0 0.098-0.065 0.182-0.154 0.209l-0.002 0c-0.023 0.010-0.050 0.015-0.078 0.015-0.084 0-0.157-0.051-0.188-0.124l-0-0.001c-0.041-0.088-0.068-0.183-0.098-0.272-0.28-0.786-0.825-1.419-1.525-1.806l-0.017-0.009c-0.070-0.034-0.13-0.073-0.186-0.118l0.002 0.001c-0.044-0.038-0.072-0.094-0.072-0.156 0-0.041 0.012-0.079 0.033-0.111l-0 0.001c0.035-0.068 0.105-0.114 0.185-0.114 0.014 0 0.028 0.001 0.041 0.004l-0.001-0c0.051 0.009 0.097 0.025 0.138 0.049l-0.002-0.001c0.917 0.475 1.602 1.29 1.893 2.275l0.007 0.027c0.014 0.037 0.020 0.078 0.023 0.106z"></path>
<path fill="#000" d="M10.096 12.364c-0.248-0.099-0.522-0.198-0.787-0.316-0.066-0.033-0.111-0.1-0.111-0.178 0-0.035 0.009-0.067 0.024-0.095l-0.001 0.001c0.024-0.080 0.097-0.137 0.183-0.137 0.018 0 0.035 0.002 0.051 0.007l-0.001-0c0.32 0.084 0.598 0.192 0.86 0.326l-0.024-0.011c0.060 0.034 0.1 0.097 0.1 0.17 0 0.031-0.007 0.061-0.021 0.087l0.001-0.001c-0.043 0.114-0.133 0.154-0.274 0.147z"></path>
<path fill="#000" d="M21.855 11.643c0.173-0.003 0.255 0.043 0.287 0.148 0.010 0.024 0.016 0.051 0.016 0.080 0 0.083-0.050 0.155-0.121 0.187l-0.001 0.001c-0.26 0.109-0.525 0.21-0.792 0.3-0.018 0.006-0.039 0.010-0.061 0.010-0.091 0-0.168-0.061-0.192-0.144l-0-0.001c-0.016-0.027-0.025-0.060-0.025-0.095 0-0.069 0.037-0.13 0.092-0.163l0.001-0c0.28-0.123 0.567-0.229 0.796-0.321z"></path>
<path fill="#000" d="M21.855 15.387c-0.322-0.096-0.596-0.206-0.859-0.337l0.031 0.014c-0.060-0.035-0.099-0.098-0.099-0.171 0-0.040 0.012-0.076 0.032-0.107l-0 0.001c0.028-0.075 0.099-0.127 0.182-0.127 0.021 0 0.041 0.003 0.059 0.009l-0.001-0q0.409 0.142 0.812 0.312c0.065 0.033 0.109 0.098 0.109 0.175 0 0.027-0.006 0.053-0.016 0.077l0-0.001c-0.031 0.108-0.112 0.153-0.25 0.157z"></path>
<path fill="#000" d="M9.504 15.38c-0.168 0.006-0.253-0.035-0.288-0.14-0.013-0.026-0.021-0.057-0.021-0.089 0-0.081 0.049-0.151 0.118-0.183l0.001-0.001c0.259-0.11 0.524-0.21 0.79-0.302 0.020-0.008 0.044-0.012 0.068-0.012 0.088 0 0.162 0.057 0.189 0.135l0 0.001c0.016 0.028 0.026 0.061 0.026 0.097 0 0.076-0.044 0.143-0.108 0.175l-0.001 0.001c-0.271 0.128-0.551 0.231-0.775 0.318z"></path>
<path fill="#000" d="M9.45 13.74h-0.363c-0.008 0.001-0.017 0.002-0.027 0.002-0.116 0-0.21-0.094-0.21-0.21 0-0.003 0-0.007 0-0.010l-0 0c-0.001-0.008-0.002-0.017-0.002-0.026 0-0.113 0.091-0.204 0.204-0.204 0.008 0 0.016 0 0.024 0.001l-0.001-0c0.258-0.004 0.517-0.005 0.775 0 0.006-0.001 0.012-0.001 0.019-0.001 0.115 0 0.209 0.094 0.209 0.209 0 0.007-0 0.014-0.001 0.021l0-0.001c0 0.001 0 0.003 0 0.005 0 0.118-0.096 0.214-0.214 0.214-0.009 0-0.017-0.001-0.026-0.002l0.001 0c-0.13 0.003-0.259 0.001-0.388 0.001z"></path>
<path fill="#000" d="M21.855 13.733c-0.129 0-0.259 0.004-0.387 0-0.005 0-0.011 0.001-0.017 0.001-0.116 0-0.21-0.094-0.21-0.21 0-0.007 0-0.015 0.001-0.022l-0 0.001c-0-0.003-0-0.006-0-0.010 0-0.113 0.091-0.204 0.204-0.204 0.004 0 0.009 0 0.013 0l-0.001-0q0.399-0.010 0.799 0c0.002-0 0.005-0 0.007-0 0.113 0 0.204 0.091 0.204 0.204 0 0.005-0 0.010-0 0.014l0-0.001c0.001 0.006 0.001 0.013 0.001 0.020 0 0.115-0.093 0.208-0.208 0.208-0.007 0-0.014-0-0.020-0.001l0.001 0c-0.129 0.001-0.258-0.001-0.387-0.001z"></path>
</svg>
