<!-- Generated by IcoMoon.io -->
<svg version="1.1" xmlns="http://www.w3.org/2000/svg" width="43" height="32" viewBox="0 0 43 32">
<title>Path-12096-1</title>
<path d="M23.465 32l-9.263-12.747-9.13 12.747h-5.072l11.6-15.835-10.895-15.041h5.028l8.645 11.854 8.546-11.854h4.808l-10.884 14.908 11.689 15.967zM43.005 15.978v2.238h-12.943v-1.751l7.333-7.071c0.708-0.631 1.307-1.365 1.778-2.182l0.023-0.042c0.287-0.55 0.457-1.2 0.463-1.889v-0.002c0.002-0.041 0.004-0.090 0.004-0.139 0-0.834-0.386-1.578-0.988-2.063l-0.005-0.004c-0.712-0.498-1.597-0.795-2.55-0.795-0.103 0-0.204 0.003-0.305 0.010l0.014-0.001c-0.098-0.006-0.212-0.009-0.326-0.009-1.708 0-3.239 0.758-4.274 1.957l-0.006 0.007-1.751-1.519c0.731-0.871 1.656-1.555 2.71-1.99l0.047-0.017c1.088-0.456 2.353-0.721 3.68-0.721 0.050 0 0.099 0 0.149 0.001l-0.007-0c0.11-0.006 0.239-0.010 0.369-0.010 1.556 0 2.993 0.511 4.152 1.374l-0.018-0.013c1.026 0.825 1.677 2.080 1.677 3.487 0 0.063-0.001 0.126-0.004 0.189l0-0.009c0 0.007 0 0.016 0 0.024 0 0.983-0.228 1.913-0.634 2.739l0.016-0.037c-0.63 1.138-1.41 2.107-2.329 2.923l-0.011 0.010-5.513 5.301z"></path>
</svg>
