<!-- Generated by IcoMoon.io -->
<svg version="1.1" xmlns="http://www.w3.org/2000/svg" width="32" height="32" viewBox="0 0 32 32">
<title>pharagraphspacing</title>
<path d="M28 30.333h-24c-0.552 0-1-0.448-1-1v0c0-0.552 0.448-1 1-1v0h24c0.552 0 1 0.448 1 1v0c0 0.552-0.448 1-1 1v0z"></path>
<path d="M28 3.667h-24c-0.552 0-1-0.448-1-1v0c0-0.552 0.448-1 1-1v0h24c0.552 0 1 0.448 1 1v0c0 0.552-0.448 1-1 1v0z"></path>
<path d="M16 25c-0.552 0-1-0.448-1-1v0-16c0-0.552 0.448-1 1-1v0c0.552 0 1 0.448 1 1v0 16c0 0.552-0.448 1-1 1v0z"></path>
<path d="M19.773 11.293c-0 0-0 0-0 0-0.276 0-0.526-0.112-0.706-0.293l-3.067-3.067-3.067 3.067c-0.181 0.181-0.431 0.293-0.707 0.293s-0.526-0.112-0.707-0.293v0c-0.18-0.181-0.292-0.43-0.292-0.706s0.112-0.526 0.293-0.707l3.773-3.773c0.181-0.181 0.431-0.293 0.707-0.293s0.526 0.112 0.707 0.293l3.772 3.773c0.181 0.181 0.292 0.431 0.292 0.707 0 0.552-0.447 0.999-0.999 1h-0z"></path>
<path d="M16 25.96c-0 0-0 0-0 0-0.276 0-0.526-0.112-0.706-0.293l-3.773-3.773c-0.181-0.181-0.292-0.431-0.292-0.707s0.112-0.526 0.292-0.707v0c0.181-0.181 0.431-0.292 0.707-0.292s0.526 0.112 0.707 0.292v0l3.067 3.067 3.067-3.067c0.181-0.181 0.431-0.293 0.707-0.293s0.526 0.112 0.707 0.293v0c0.18 0.181 0.292 0.43 0.292 0.706s-0.112 0.526-0.293 0.707l-3.773 3.773c-0.181 0.181-0.43 0.293-0.706 0.293-0 0-0 0-0 0v0z"></path>
</svg>
