<svg width="15.884" height="10.947" version="1.1" viewBox="0 0 15.884 10.947" xmlns="http://www.w3.org/2000/svg">
 <g>
  <path id="Vector" d="m15.449 1.094h-10.461a0.43586 0.547 0 0 1-0.43586-0.547 0.43586 0.547 0 0 1 0.43586-0.547h10.461a0.43586 0.547 0 0 1 0.43586 0.547 0.43586 0.547 0 0 1-0.43586 0.547z" color="#000000" stroke-width=".65103" style="-inkscape-stroke:none"/>
  <path d="m15.449 4.292h-10.461a0.43586 0.547 0 0 1-0.43586-0.547 0.43586 0.547 0 0 1 0.43586-0.547h10.461a0.43586 0.547 0 0 1 0.43586 0.547 0.43586 0.547 0 0 1-0.43586 0.547z" color="#000000" stroke-width=".65103" style="-inkscape-stroke:none"/>
  <path d="m2.4299 9.8327v0.40213h-2.3249v-0.31431l1.3206-1.2711a1.5735 1.5735 0 0 0 0.32355-0.39949 0.76134 0.76134 0 0 0 0.083199-0.34006 0.47542 0.47542 0 0 0-0.17828-0.39619 0.80624 0.80624 0 0 0-0.51108-0.14131 1.0142 1.0142 0 0 0-0.83001 0.35326l-0.31299-0.27337a1.2618 1.2618 0 0 1 0.49589-0.36053 1.7525 1.7525 0 0 1 0.68672-0.13206 1.25 1.25 0 0 1 0.80888 0.24233 0.80161 0.80161 0 0 1 0.30044 0.66031 1.1179 1.1179 0 0 1-0.11093 0.48995 1.9585 1.9585 0 0 1-0.42062 0.52825l-0.9898 0.95216z" color="#000000" stroke-width=".66031" style="-inkscape-stroke:none"/>
  <path d="m1.8191 1.0565v3.2355h-0.45759v-2.8334h-0.7303v-0.40213z" color="#000000" stroke-width=".66031" style="-inkscape-stroke:none"/>
  <path d="m15.449 7.6453h-10.461a0.43586 0.547 0 0 1-0.43586-0.547 0.43586 0.547 0 0 1 0.43586-0.547h10.461a0.43586 0.547 0 0 1 0.43586 0.547 0.43586 0.547 0 0 1-0.43586 0.547z" color="#000000" stroke-width=".65103" style="-inkscape-stroke:none"/>
  <path d="m15.449 10.947h-10.461a0.43586 0.547 0 0 1-0.43586-0.547 0.43586 0.547 0 0 1 0.43586-0.547h10.461a0.43586 0.547 0 0 1 0.43586 0.547 0.43586 0.547 0 0 1-0.43586 0.547z" color="#000000" stroke-width=".65103" style="-inkscape-stroke:none"/>
 </g>
</svg>
