<!-- Generated by IcoMoon.io -->
<svg version="1.1" xmlns="http://www.w3.org/2000/svg" width="32" height="32" viewBox="0 0 32 32">
<title>Pod_Plataform_Icon_Guardar-widget</title>
<path d="M9.568 1.667h12.855c3.391 0.010 6.138 2.751 6.159 6.138v18.787c0 2.237-1.271 3.741-3.163 3.741-0.795-0.019-1.534-0.245-2.169-0.626l-6.499-3.601c-0.203-0.101-0.443-0.159-0.696-0.159-0.018 0-0.035 0-0.053 0.001l0.003-0c-0.014-0-0.030-0.001-0.046-0.001-0.261 0-0.508 0.060-0.728 0.168l0.010-0.004-6.507 3.613c-0.614 0.365-1.35 0.588-2.136 0.607l-0.005 0c-1.896 0-3.171-1.5-3.171-3.733v-18.785c0.004-3.393 2.754-6.142 6.146-6.145h0zM25.413 28.333c1.049 0 1.163-1.217 1.163-1.741v-18.78c-0.015-2.286-1.867-4.135-4.152-4.145h-12.856c-2.288 0.002-4.143 1.857-4.145 4.145v18.78c0 0.521 0.115 1.733 1.171 1.733 0.436-0.022 0.838-0.152 1.184-0.362l-0.011 0.006 6.501-3.611c0.489-0.262 1.070-0.416 1.686-0.416 0.017 0 0.033 0 0.049 0l-0.003-0c0.017-0 0.036-0 0.056-0 0.614 0 1.192 0.155 1.697 0.428l-0.019-0.009 6.5 3.609c0.337 0.208 0.74 0.34 1.172 0.362l0.006 0z"></path>
<path d="M15.999 20.333c-0.552 0-1-0.448-1-1v0-10.667c0-0.552 0.448-1 1-1v0c0.552 0 1 0.448 1 1v0 10.667c0 0.552-0.448 1-1 1v0z"></path>
<path d="M21.332 15h-10.667c-0.552 0-1-0.448-1-1v0c0-0.552 0.448-1 1-1v0h10.667c0.552 0 1 0.448 1 1v0c0 0.552-0.448 1-1 1v0z"></path>
</svg>
