<!-- Generated by IcoMoon.io -->
<svg version="1.1" xmlns="http://www.w3.org/2000/svg" width="27" height="32" viewBox="0 0 27 32">
<title>tablet</title>
<path d="M18.675 32h-10.334c-0.080 0.003-0.175 0.004-0.269 0.004-2.242 0-4.275-0.9-5.755-2.358l0.001 0.001c-1.428-1.519-2.305-3.569-2.305-5.825 0-0.103 0.002-0.205 0.005-0.307l-0 0.015v-15.059c-0.003-0.088-0.005-0.191-0.005-0.295 0-2.255 0.877-4.305 2.308-5.828l-0.004 0.004c1.48-1.457 3.512-2.357 5.754-2.357 0.095 0 0.19 0.002 0.285 0.005l-0.014-0h10.334c0.080-0.003 0.175-0.004 0.269-0.004 2.242 0 4.275 0.9 5.755 2.358l-0.001-0.001c1.427 1.518 2.303 3.568 2.303 5.823 0 0.104-0.002 0.207-0.006 0.309l0-0.015v15.059c0.003 0.088 0.005 0.191 0.005 0.295 0 2.255-0.877 4.305-2.308 5.828l0.004-0.004c-1.48 1.457-3.512 2.357-5.754 2.357-0.095 0-0.189-0.002-0.283-0.005l0.014 0zM8.341 1.882c-0.106-0.007-0.23-0.010-0.355-0.010-3.372 0-6.106 2.734-6.106 6.106 0 0.173 0.007 0.345 0.021 0.514l-0.002-0.022v15.059c-0.013 0.147-0.020 0.319-0.020 0.492 0 3.372 2.734 6.106 6.106 6.106 0.125 0 0.249-0.004 0.372-0.011l-0.017 0.001h10.334c0.105 0.006 0.229 0.010 0.353 0.010 3.372 0 6.106-2.734 6.106-6.106 0-0.173-0.007-0.345-0.021-0.514l0.002 0.022v-15.059c0.013-0.147 0.020-0.319 0.020-0.492 0-3.372-2.734-6.106-6.106-6.106-0.124 0-0.248 0.004-0.37 0.011l0.017-0.001z"></path>
<path d="M25.122 23.718h-23.072c-0.52 0-0.941-0.421-0.941-0.941v0c0-0.52 0.421-0.941 0.941-0.941v0h23.072c0.52 0 0.941 0.421 0.941 0.941v0c0 0.52-0.421 0.941-0.941 0.941v0z"></path>
<path d="M15.132 27.006c0 1.040-0.843 1.882-1.882 1.882s-1.882-0.843-1.882-1.882c0-1.040 0.843-1.882 1.882-1.882v0c1.040 0 1.882 0.843 1.882 1.882v0z"></path>
<path d="M14.436 5.647c0 0.52-0.421 0.941-0.941 0.941s-0.941-0.421-0.941-0.941c0-0.52 0.421-0.941 0.941-0.941v0c0.52 0 0.941 0.421 0.941 0.941v0z"></path>
</svg>
