<svg id="_3Pod_Plataform_Icon_Alineacion-justificado" width="19.5" height="16.5" data-name="3Pod_Plataform_Icon_Alineacion-justificado" version="1.1" viewBox="0 0 19.5 16.5" xmlns="http://www.w3.org/2000/svg">
 <g transform="translate(-2.25,-3.75)" stroke-linecap="round" stroke-linejoin="round">
  <path id="Vector" d="m3 3.75a0.75 0.75 0 0 0-0.75 0.75 0.75 0.75 0 0 0 0.75 0.75h18a0.75 0.75 0 0 0 0.75-0.75 0.75 0.75 0 0 0-0.75-0.75z" color="#000000" style="-inkscape-stroke:none"/>
  <path d="m3 8.75a0.75 0.75 0 0 0-0.75 0.75 0.75 0.75 0 0 0 0.75 0.75h18a0.75 0.75 0 0 0 0.75-0.75 0.75 0.75 0 0 0-0.75-0.75z" color="#000000" style="-inkscape-stroke:none"/>
  <path d="m3 13.75a0.75 0.75 0 0 0-0.75 0.75 0.75 0.75 0 0 0 0.75 0.75h18a0.75 0.75 0 0 0 0.75-0.75 0.75 0.75 0 0 0-0.75-0.75z" color="#000000" style="-inkscape-stroke:none"/>
  <path d="m7.2656 18.75a0.75 0.75 0 0 0-0.75 0.75 0.75 0.75 0 0 0 0.75 0.75h9.4688a0.75 0.75 0 0 0 0.75-0.75 0.75 0.75 0 0 0-0.75-0.75z" color="#000000" style="-inkscape-stroke:none"/>
 </g>
</svg>
