<svg id="textalign-left" width="19.5" height="16.5" version="1.1" viewBox="0 0 19.5 16.5" xmlns="http://www.w3.org/2000/svg">
 <g stroke-linecap="round" stroke-linejoin="round">
  <path id="Vector" d="m0.75 0a0.75 0.75 0 0 0-0.75 0.75 0.75 0.75 0 0 0 0.75 0.75h18a0.75 0.75 0 0 0 0.75-0.75 0.75 0.75 0 0 0-0.75-0.75z" color="#000000" style="-inkscape-stroke:none"/>
  <path d="m5.015 5a0.75 0.75 0 0 0-0.75 0.75 0.75 0.75 0 0 0 0.75 0.75h9.4707a0.75 0.75 0 0 0 0.75-0.75 0.75 0.75 0 0 0-0.75-0.75z" color="#000000" style="-inkscape-stroke:none"/>
  <path d="m0.75 10a0.75 0.75 0 0 0-0.75 0.75 0.75 0.75 0 0 0 0.75 0.75h18a0.75 0.75 0 0 0 0.75-0.75 0.75 0.75 0 0 0-0.75-0.75z" color="#000000" style="-inkscape-stroke:none"/>
  <path d="m5.015 15a0.75 0.75 0 0 0-0.75 0.75 0.75 0.75 0 0 0 0.75 0.75h9.4707a0.75 0.75 0 0 0 0.75-0.75 0.75 0.75 0 0 0-0.75-0.75z" color="#000000" style="-inkscape-stroke:none"/>
 </g>
</svg>
