<svg width="24" height="24" version="1.1" viewBox="0 0 24 24" xmlns="http://www.w3.org/2000/svg">
 <g id="_3Pod_Plataform_Icon_Texto" transform="translate(-1275,-19907)" data-name="3Pod_Plataform_Icon_Texto">
  <path id="Rectangle_4269_-_Outline" transform="translate(1275,19907)" d="m4 1a3 3 0 0 0-3 3v16a3 3 0 0 0 3 3h16a3 3 0 0 0 3-3v-16a3 3 0 0 0-3-3h-16m0-1h16a4 4 0 0 1 4 4v16a4 4 0 0 1-4 4h-16a4 4 0 0 1-4-4v-16a4 4 0 0 1 4-4z" color="#000000" style="-inkscape-stroke:none"/>
  <g transform="translate(572.24 19333)" data-name="Group 4932">
   <path id="Vector" transform="translate(710.28 579.62)" d="m8.968 9.7a0.75 0.75 0 0 1-0.668-0.419l-3.816-7.607-3.814 7.607a0.75 0.75 0 0 1-1.007 0.334 0.75 0.75 0 0 1-0.333-1.006l4.483-8.945a0.75 0.75 0 0 1 0.67-0.414 0.75 0.75 0 0 1 0.67 0.414l4.485 8.945a0.75 0.75 0 0 1-0.67 1.091z" color="#000000" style="-inkscape-stroke:none"/>
   <path transform="translate(711.1 586.98)" d="m7.375 0.75h-7.375a0.75 0.75 0 0 1-0.75-0.75 0.75 0.75 0 0 1 0.75-0.75h7.375a0.75 0.75 0 0 1 0.75 0.75 0.75 0.75 0 0 1-0.75 0.75z" color="#000000" style="-inkscape-stroke:none"/>
  </g>
  <path transform="translate(1282.5 19925)" d="M 9,0.75 H 0 A 0.75,0.75 0 0 1 -0.75,0 0.75,0.75 0 0 1 0,-0.75 H 9 A 0.75,0.75 0 0 1 9.75,0 0.75,0.75 0 0 1 9,0.75 Z" color="#000000" style="-inkscape-stroke:none"/>
 </g>
</svg>
