<svg width="17.76" height="14.12" version="1.1" viewBox="0 0 17.76 14.12" xmlns="http://www.w3.org/2000/svg">
 <path id="Vector" d="m1.0098 2.6191a0.75 0.75 0 0 0-0.75 0.75 0.75 0.75 0 0 0 0.75 0.75h11c2.3561 0 4.25 1.8939 4.25 4.25 0 2.3561-1.8939 4.25-4.25 4.25h-8a0.75 0.75 0 0 0-0.75 0.75 0.75 0.75 0 0 0 0.75 0.75h8c3.1668 0 5.75-2.5832 5.75-5.75 0-3.1667-2.5832-5.75-5.75-5.75z" color="#000000" stroke-linecap="round" stroke-linejoin="round" style="-inkscape-stroke:none"/>
 <path d="m3.3105 0a0.75 0.75 0 0 0-0.53125 0.21875l-2.5605 2.5605a0.75008 0.75008 0 0 0 0 1.0605l2.5605 2.5605a0.75 0.75 0 0 0 1.0605 0 0.75 0.75 0 0 0 0-1.0605l-2.0293-2.0293 2.0293-2.0293a0.75 0.75 0 0 0 0-1.0625 0.75 0.75 0 0 0-0.5293-0.21875z" color="#000000" stroke-linecap="round" stroke-linejoin="round" style="-inkscape-stroke:none"/>
</svg>
