<svg width="17.428" height="12.028" version="1.1" viewBox="0 0 17.428 12.028" xmlns="http://www.w3.org/2000/svg">
 <title>textalign-justifycenter</title>
 <g stroke-width=".3474">
  <path d="m16.961 1.0938h-11.209c-0.25783 0-0.46718-0.24469-0.46718-0.5469 0-0.30183 0.20903-0.5469 0.46718-0.5469h11.209c0.25783 0 0.46718 0.24469 0.46718 0.5469 0 0.30183-0.20903 0.5469-0.46718 0.5469z"/>
  <path d="m16.961 4.7387h-11.209c-0.25783 0-0.46718-0.24469-0.46718-0.5469 0-0.30183 0.20903-0.5469 0.46718-0.5469h11.209c0.25783 0 0.46718 0.2447 0.46718 0.5469 0 0.30183-0.20903 0.5469-0.46718 0.5469z"/>
  <path d="m16.961 8.3835h-11.209c-0.25783 0-0.46718-0.2447-0.46718-0.5469 0-0.30183 0.20903-0.5469 0.46718-0.5469h11.209c0.25783 0 0.46718 0.24469 0.46718 0.5469 0 0.30183-0.20903 0.5469-0.46718 0.5469z"/>
  <path d="m16.961 12.028h-11.209c-0.25783 0-0.46718-0.24469-0.46718-0.5469 0-0.30183 0.20903-0.5469 0.46718-0.5469h11.209c0.25783 0 0.46718 0.24469 0.46718 0.5469 0 0.30183-0.20903 0.5469-0.46718 0.5469z"/>
 </g>
 <path d="m2.916 2.3695c0 0.80512-0.6529 1.458-1.458 1.458-0.80512 0-1.458-0.65289-1.458-1.458 0-0.80512 0.65289-1.458 1.458-1.458 0.80512 0 1.458 0.65289 1.458 1.458z" stroke-width=".37588"/>
 <path d="m2.916 9.6592c0 0.80512-0.6529 1.458-1.458 1.458-0.80512 0-1.458-0.65289-1.458-1.458 0-0.80512 0.65289-1.458 1.458-1.458 0.80512 0 1.458 0.6529 1.458 1.458z" stroke-width=".37588"/>
</svg>
