<!-- Generated by IcoMoon.io -->
<svg version="1.1" xmlns="http://www.w3.org/2000/svg" width="32" height="32" viewBox="0 0 32 32">
<title>websites</title>
<path fill="#000" opacity="0.07" d="M32 16c0 8.837-7.163 16-16 16s-16-7.163-16-16c0-8.837 7.163-16 16-16s16 7.163 16 16z"></path>
<path fill="#000" d="M22.384 15.99h-12.384c-0.304 0-0.55-0.246-0.55-0.55v0-0.857c0-0.304 0.246-0.55 0.55-0.55v0h12.384c0.304 0 0.55 0.246 0.55 0.55v0.856c0 0 0 0.001 0 0.001 0 0.304-0.246 0.55-0.55 0.55 0 0 0 0 0 0v0zM10.001 14.44c-0.081 0-0.146 0.066-0.146 0.146v0 0.856c0 0.081 0.066 0.146 0.146 0.146v0h12.384c0.081-0 0.146-0.066 0.146-0.146v-0.86c-0-0.081-0.066-0.146-0.146-0.146h-0z"></path>
<path fill="#000" d="M22.384 18.95h-3.844c-0.304 0-0.55-0.246-0.55-0.55v-1.511c0-0.304 0.246-0.55 0.55-0.55v0h3.844c0.304 0 0.55 0.246 0.55 0.55v1.511c0 0.304-0.246 0.55-0.55 0.55v0zM18.541 16.743c-0.081 0-0.146 0.066-0.146 0.146v0 1.511c0 0.081 0.066 0.146 0.146 0.146h3.844c0.081-0 0.146-0.066 0.146-0.146v-1.511c0-0.081-0.066-0.146-0.146-0.146v0z"></path>
<path fill="#000" d="M17.084 21.695h-7.079c-0.304 0-0.55-0.246-0.55-0.55v0-4.253c0-0.304 0.246-0.55 0.55-0.55v0h7.079c0.304 0 0.55 0.246 0.55 0.55v4.253c0 0.304-0.246 0.55-0.55 0.55v0zM10.006 16.745c-0.081 0-0.146 0.066-0.146 0.146v0 4.253c0 0.081 0.066 0.146 0.146 0.146v0h7.078c0.081 0 0.146-0.066 0.146-0.146v-4.253c0-0.081-0.066-0.146-0.146-0.146v0z"></path>
<path fill="#000" d="M22.384 21.695h-3.844c-0.304 0-0.55-0.246-0.55-0.55v-1.511c0-0.304 0.246-0.55 0.55-0.55v0h3.844c0.304 0 0.55 0.246 0.55 0.55v1.511c0 0.304-0.246 0.55-0.55 0.55v0zM18.541 19.488c-0.081 0-0.146 0.066-0.146 0.146v0 1.511c0 0.081 0.066 0.146 0.146 0.146h3.844c0.081-0 0.146-0.066 0.146-0.146v-1.511c0-0.081-0.066-0.146-0.146-0.146v0z"></path>
<path fill="#000" d="M23.184 23.45h-13.938c-0.739-0.001-1.338-0.6-1.338-1.338v-11.215c0.001-0.739 0.6-1.338 1.338-1.338h13.938c0.739 0.001 1.338 0.6 1.339 1.338v11.215c-0.001 0.739-0.6 1.338-1.339 1.338h-0zM9.246 10.364c-0.294 0-0.532 0.238-0.532 0.532v11.215c0 0.294 0.238 0.532 0.532 0.532h13.938c0.294-0 0.532-0.238 0.532-0.532v-11.215c-0-0.294-0.238-0.532-0.532-0.532h-0z"></path>
<path fill="#000" d="M10.485 10.89c0.228 0.012 0.409 0.198 0.413 0.427v0c-0.001 0.22-0.18 0.398-0.4 0.398-0.010 0-0.020-0-0.030-0.001l0.001 0c-0.001 0-0.003 0-0.005 0-0.218 0-0.396-0.177-0.396-0.396 0-0.002 0-0.003 0-0.005v0c0.005-0.229 0.187-0.414 0.414-0.424l0.001-0z"></path>
<path fill="#000" d="M11.784 10.89c0.228 0.012 0.409 0.198 0.414 0.427v0c-0.001 0.22-0.18 0.398-0.4 0.398-0.010 0-0.020-0-0.030-0.001l0.001 0c-0.001 0-0.003 0-0.005 0-0.218 0-0.396-0.177-0.396-0.396 0-0.002 0-0.003 0-0.005v0c0.005-0.229 0.187-0.414 0.414-0.424l0.001-0z"></path>
<path fill="#000" d="M13.134 10.89c0.228 0.012 0.409 0.198 0.413 0.427v0c-0.001 0.22-0.18 0.398-0.4 0.398-0.010 0-0.020-0-0.030-0.001l0.001 0c-0.001 0-0.003 0-0.005 0-0.218 0-0.396-0.177-0.396-0.396 0-0.002 0-0.003 0-0.005v0c0.005-0.229 0.187-0.414 0.414-0.424l0.001-0z"></path>
<path fill="#000" d="M20.334 12.020c-1.092 0-2.184 0.012-3.276-0.006-0.022-0.001-0.047-0.001-0.073-0.001-0.42 0-0.821 0.085-1.185 0.239l0.020-0.008c-0.646 0.28-1.398 0.443-2.188 0.443-0.058 0-0.117-0.001-0.175-0.003l0.008 0c-1.586-0.044-3.176-0.011-4.764-0.010h-0.178v0.806c0.035-0.005 0.076-0.008 0.118-0.008 0.005 0 0.010 0 0.015 0h-0.001c1.817 0.008 3.636 0 5.453 0.009 0.038 0.002 0.082 0.003 0.127 0.003 0.371 0 0.724-0.075 1.046-0.21l-0.018 0.007c0.762-0.325 1.649-0.513 2.579-0.513 0.148 0 0.295 0.005 0.44 0.014l-0.020-0.001c1.826 0.040 3.655 0.017 5.482 0.008h0.034v-0.772h-0.024q-1.71 0.002-3.423 0.001z"></path>
<path fill="#000" d="M12.017 14.236h0.403v1.471h-0.403v-1.471z"></path>
<path fill="#000" d="M14.184 17.955l1.394 0.36c0.25 0.064 0.497 0.124 0.745 0.19 0.083 0.022 0.172 0.050 0.188 0.15s-0.070 0.15-0.144 0.189c-0.087 0.052-0.192 0.108-0.301 0.158l-0.021 0.009c-0.177 0.075-0.169 0.154-0.034 0.273 0.198 0.174 0.384 0.36 0.573 0.544 0.208 0.2 0.207 0.25 0.006 0.447-0.010 0.010-0.021 0.019-0.030 0.030-0.4 0.465-0.372 0.354-0.727 0.017-0.145-0.137-0.29-0.273-0.429-0.417-0.112-0.116-0.193-0.134-0.26 0.040-0.050 0.126-0.112 0.246-0.171 0.367-0.035 0.072-0.076 0.143-0.173 0.132-0.084-0.010-0.113-0.079-0.135-0.15-0.126-0.4-0.25-0.8-0.376-1.2q-0.141-0.459-0.275-0.921c-0.041-0.136-0.001-0.222 0.173-0.218zM15.934 18.705c-0.506-0.134-0.985-0.26-1.463-0.385-0.1-0.026-0.112 0.032-0.089 0.107 0.146 0.48 0.293 0.96 0.455 1.491 0.083-0.166 0.14-0.285 0.2-0.4 0.079-0.153 0.174-0.164 0.3-0.041 0.238 0.235 0.489 0.456 0.72 0.697 0.111 0.116 0.172 0.059 0.261-0.016 0.11-0.094 0.050-0.155-0.023-0.224q-0.35-0.329-0.697-0.66c-0.172-0.163-0.161-0.262 0.043-0.377 0.115-0.045 0.213-0.111 0.294-0.194l0-0z"></path>
</svg>
