<!-- Generated by IcoMoon.io -->
<svg version="1.1" xmlns="http://www.w3.org/2000/svg" width="32" height="32" viewBox="0 0 32 32">
<title>copy</title>
<path d="M8.395 8.971c-2.747 0-4.915 0.556-6.377 2.018s-2.018 3.63-2.018 6.377v6.238c0 2.749 0.556 4.918 2.018 6.379s3.631 2.016 6.377 2.016h6.238c2.747 0 4.915-0.554 6.377-2.016s2.018-3.631 2.018-6.379v-6.238c0-2.747-0.554-4.915-2.016-6.377s-3.631-2.018-6.379-2.018zM8.395 11.203h6.238c2.45 0 3.924 0.486 4.801 1.364s1.362 2.35 1.362 4.799v6.238c0 2.45-0.486 3.924-1.364 4.801s-2.35 1.362-4.799 1.362h-6.238c-2.449 0-3.921-0.484-4.799-1.362s-1.364-2.351-1.364-4.801v-6.238c0-2.449 0.486-3.921 1.364-4.799s2.351-1.364 4.799-1.364z"></path>
<path d="M17.365 0c-2.747 0-4.915 0.556-6.377 2.018s-2.018 3.627-2.018 6.373v1.637c0 0.616 0.5 1.116 1.116 1.116h4.603c2.449 0 3.921 0.486 4.799 1.364s1.364 2.349 1.364 4.799v4.605c0 0.616 0.5 1.116 1.116 1.116h1.637c2.747 0 4.915-0.554 6.377-2.016s2.018-3.631 2.018-6.379v-6.238c0-2.747-0.556-4.915-2.018-6.377s-3.629-2.018-6.377-2.018zM17.365 2.232h6.24c2.45 0 3.921 0.486 4.799 1.364s1.364 2.35 1.364 4.799v6.238c0 2.45-0.486 3.924-1.364 4.801s-2.35 1.362-4.799 1.362h-0.521v-3.489c0-2.749-0.556-4.915-2.018-6.377s-3.631-2.018-6.377-2.018h-3.487v-0.521c0-2.447 0.486-3.917 1.364-4.795s2.351-1.364 4.799-1.364z"></path>
</svg>
