<!-- Generated by IcoMoon.io -->
<svg version="1.1" xmlns="http://www.w3.org/2000/svg" width="32" height="32" viewBox="0 0 32 32">
<title>edit</title>
<path d="M6.407 32.158c-1.304-0.866-2.152-2.328-2.152-3.989 0-0.086 0.002-0.172 0.007-0.257l-0 0.012-0.051-2.674c0.020-1.18 0.324-2.285 0.846-3.256l-0.019 0.038 10.922-18.917c1.098-1.876 3.102-3.116 5.397-3.116 3.442 0 6.232 2.79 6.232 6.232 0 1.147-0.31 2.222-0.851 3.145l0.016-0.029-10.914 18.904c-0.606 0.955-1.403 1.736-2.341 2.307l-0.032 0.018-2.341 1.293c-0.731 0.498-1.634 0.796-2.606 0.796-0.771 0-1.498-0.187-2.138-0.518l0.026 0.012zM23.224 3.030c-0.531-0.31-1.169-0.493-1.849-0.493-1.364 0-2.557 0.736-3.203 1.832l-0.009 0.017-10.914 18.904c-0.286 0.556-0.466 1.208-0.499 1.899l-0 0.011 0.051 2.674c-0.008 0.073-0.013 0.158-0.013 0.244 0 0.743 0.346 1.406 0.887 1.834l0.005 0.004c0.255 0.102 0.552 0.161 0.862 0.161 0.518 0 0.998-0.166 1.388-0.447l-0.007 0.005 2.341-1.293c0.565-0.365 1.033-0.828 1.393-1.37l0.011-0.017 10.914-18.904c0.31-0.531 0.493-1.169 0.493-1.849 0-1.364-0.735-2.557-1.832-3.203l-0.017-0.009z"></path>
<path d="M23.316 12.808l-8.62-4.977c-0.379-0.225-0.629-0.632-0.629-1.097 0-0.231 0.062-0.448 0.169-0.635l-0.003 0.006c0.225-0.379 0.632-0.629 1.097-0.629 0.231 0 0.448 0.062 0.635 0.169l-0.006-0.003 8.62 4.977c0.379 0.225 0.629 0.632 0.629 1.097 0 0.231-0.062 0.448-0.169 0.635l0.003-0.006c-0.225 0.379-0.632 0.629-1.097 0.629-0.231 0-0.448-0.062-0.635-0.169l0.006 0.003z"></path>
</svg>
