<!-- Generated by IcoMoon.io -->
<svg version="1.1" xmlns="http://www.w3.org/2000/svg" width="32" height="32" viewBox="0 0 32 32">
<title>emoji</title>
<path fill="#fbcc58" d="M32 16c0 0 0 0 0 0 0 8.837-7.163 16-16 16s-16-7.163-16-16c0-8.837 7.163-16 16-16 4.418 0 8.418 1.791 11.313 4.686v0c2.895 2.895 4.686 6.895 4.687 11.313v0z"></path>
<path fill="#512614" d="M6 16.016c0 4.031 2.012 11.984 10 11.984s10-7.953 10-11.984c0-0.319-3.22-2.016-10-2.016s-10 1.697-10 2.016z"></path>
<path fill="#ef4864" d="M9.082 24.999c1.529 1.849 3.823 3.019 6.391 3.019 0.193 0 0.384-0.007 0.573-0.020l-0.026 0.001c0.164 0.012 0.355 0.018 0.547 0.018 2.561 0 4.85-1.17 6.359-3.005l0.011-0.014c-1.661-1.846-4.058-3.001-6.725-3.001-0.068 0-0.136 0.001-0.203 0.002l0.010-0c-0.056-0.001-0.123-0.002-0.19-0.002-2.674 0-5.079 1.155-6.742 2.993l-0.007 0.008z"></path>
<path fill="#263454" d="M12.426 8.288c0.5 0.256 0.836 0.767 0.836 1.357 0 0.077-0.006 0.152-0.017 0.226l0.001-0.008c-0.145 0.508-0.388 0.737-0.844 0.742-1.835 0.089-3.545 0.531-5.095 1.26l0.082-0.035c-0.193 0.099-0.421 0.161-0.662 0.17l-0.003 0c-0.303-0.002-0.56-0.197-0.653-0.469l-0.001-0.005c-0.134-0.314-0.145-0.777 0.553-1.196 1.107-0.585 2.394-1.009 3.756-1.2l0.062-0.007c-0.761-0.569-1.625-1.083-2.541-1.501l-0.088-0.036c-0.854-0.388-0.761-0.913-0.646-1.2 0.255-0.634 1.217-0.393 2.156 0.052 1.186 0.559 2.205 1.176 3.151 1.884l-0.047-0.034zM19.58 8.288c0.898-0.675 1.915-1.292 2.991-1.805l0.108-0.046c0.94-0.444 1.9-0.687 2.156-0.052 0.113 0.291 0.208 0.812-0.646 1.2-1.003 0.454-1.865 0.968-2.662 1.564l0.037-0.026c1.423 0.198 2.709 0.622 3.878 1.238l-0.064-0.031c0.698 0.42 0.684 0.88 0.551 1.196-0.094 0.277-0.351 0.473-0.654 0.474h-0c-0.244-0.009-0.471-0.071-0.674-0.174l0.009 0.004c-1.466-0.693-3.175-1.135-4.977-1.223l-0.032-0.001c-0.455 0-0.703-0.234-0.844-0.74-0.010-0.065-0.015-0.14-0.015-0.216 0-0.59 0.336-1.102 0.827-1.355l0.009-0.004z"></path>
</svg>
