<!-- Generated by IcoMoon.io -->
<svg version="1.1" xmlns="http://www.w3.org/2000/svg" width="22" height="32" viewBox="0 0 22 32">
<title>mobile</title>
<path d="M7.226 0h7.519c0.275-0.038 0.592-0.059 0.915-0.059 1.872 0 3.574 0.726 4.839 1.913l-0.004-0.004c1.048 1.257 1.476 3.178 1.476 6.63v15.041c0 3.45-0.427 5.367-1.476 6.63-1.262 1.183-2.964 1.909-4.835 1.909-0.323 0-0.64-0.022-0.951-0.063l0.036 0.004h-7.519c-0.275 0.038-0.592 0.059-0.915 0.059-1.872 0-3.574-0.726-4.839-1.913l0.004 0.004c-1.048-1.257-1.476-3.178-1.476-6.63v-15.041c0-3.45 0.427-5.367 1.476-6.63 1.262-1.183 2.964-1.909 4.835-1.909 0.323 0 0.64 0.022 0.951 0.063l-0.036-0.004zM14.746 30.083c2.352 0 3.592-0.335 4.278-1.15 0.723-0.868 1.031-2.492 1.031-5.403v-15.050c0-2.921-0.312-4.537-1.031-5.413-0.686-0.824-1.917-1.15-4.278-1.15h-7.519c-2.352 0-3.584 0.335-4.278 1.15-0.723 0.876-1.031 2.492-1.031 5.413v15.041c0 2.919 0.309 4.535 1.031 5.403 0.686 0.824 1.917 1.15 4.278 1.15z"></path>
<path d="M12.902 24.994c0 1.059-0.858 1.917-1.917 1.917s-1.917-0.858-1.917-1.917c0-1.059 0.858-1.917 1.917-1.917v0c1.059 0 1.917 0.858 1.917 1.917v0z"></path>
<path d="M11.943 5.75c0 0.529-0.429 0.958-0.958 0.958s-0.958-0.429-0.958-0.958c0-0.529 0.429-0.958 0.958-0.958v0c0.529 0 0.958 0.429 0.958 0.958v0z"></path>
</svg>
