<!-- Generated by IcoMoon.io -->
<svg version="1.1" xmlns="http://www.w3.org/2000/svg" width="32" height="32" viewBox="0 0 32 32">
<title>ordered-list</title>
<path d="M30.898 7.188h-20.922c-0.481 0-0.872-0.49-0.872-1.094v0c0-0.604 0.39-1.094 0.872-1.094v0h20.922c0.481 0 0.872 0.49 0.872 1.094v0c0 0.604-0.39 1.094-0.872 1.094v0z"></path>
<path d="M30.898 13.584h-20.922c-0.481 0-0.872-0.49-0.872-1.094v0c0-0.604 0.39-1.094 0.872-1.094v0h20.922c0.481 0 0.872 0.49 0.872 1.094v0c0 0.604-0.39 1.094-0.872 1.094v0z"></path>
<path d="M4.86 24.665v0.804h-4.65v-0.629l2.641-2.542c0.255-0.227 0.47-0.49 0.639-0.784l0.008-0.015c0.103-0.198 0.164-0.432 0.166-0.679v-0.001c0.001-0.015 0.001-0.032 0.001-0.049 0-0.3-0.139-0.568-0.356-0.742l-0.002-0.001c-0.256-0.179-0.574-0.286-0.917-0.286-0.037 0-0.074 0.001-0.11 0.004l0.005-0c-0.035-0.002-0.077-0.003-0.119-0.003-0.616 0-1.167 0.274-1.539 0.707l-0.002 0.003-0.626-0.547c0.263-0.313 0.596-0.559 0.975-0.715l0.017-0.006c0.395-0.167 0.854-0.264 1.335-0.264 0.013 0 0.027 0 0.040 0l-0.002-0c0.040-0.002 0.087-0.004 0.134-0.004 0.559 0 1.075 0.183 1.491 0.493l-0.007-0.005c0.369 0.296 0.602 0.747 0.602 1.252 0 0.024-0.001 0.048-0.002 0.072l0-0.003c0 0.003 0 0.006 0 0.009 0 0.353-0.082 0.687-0.228 0.984l0.006-0.013c-0.226 0.41-0.507 0.759-0.837 1.053l-0.004 0.003-1.98 1.904z"></path>
<path d="M3.638 7.113v6.471h-0.915v-5.667h-1.461v-0.804z"></path>
<path d="M30.898 20.291h-20.922c-0.481 0-0.872-0.49-0.872-1.094v0c0-0.604 0.39-1.094 0.872-1.094v0h20.922c0.481 0 0.872 0.49 0.872 1.094v0c0 0.604-0.39 1.094-0.872 1.094v0z"></path>
<path d="M30.898 26.894h-20.922c-0.481 0-0.872-0.49-0.872-1.094v0c0-0.604 0.39-1.094 0.872-1.094v0h20.922c0.481 0 0.872 0.49 0.872 1.094v0c0 0.604-0.39 1.094-0.872 1.094v0z"></path>
</svg>
