<!-- Generated by IcoMoon.io -->
<svg version="1.1" xmlns="http://www.w3.org/2000/svg" width="32" height="32" viewBox="0 0 32 32">
<title>undo</title>
<path d="M1.795 8.212c-0.736 0-1.333 0.597-1.333 1.333v0c0 0.736 0.597 1.333 1.333 1.333v0h19.556c4.189 0 7.556 3.367 7.556 7.556s-3.367 7.556-7.556 7.556h-14.222c-0.736 0-1.333 0.597-1.333 1.333v0c0 0.736 0.597 1.333 1.333 1.333v0h14.222c5.63 0 10.222-4.592 10.222-10.222s-4.592-10.222-10.222-10.222z"></path>
<path d="M5.885 3.556c-0.001 0-0.002 0-0.003 0-0.367 0-0.7 0.149-0.941 0.389l-4.552 4.552c-0.241 0.241-0.39 0.575-0.39 0.943s0.149 0.701 0.39 0.943l4.552 4.552c0.241 0.241 0.575 0.39 0.943 0.39s0.701-0.149 0.943-0.39v0c0.241-0.241 0.39-0.575 0.39-0.943s-0.149-0.701-0.39-0.943l-3.608-3.608 3.608-3.608c0.242-0.241 0.392-0.575 0.392-0.944s-0.15-0.703-0.392-0.944l-0-0c-0.241-0.24-0.574-0.389-0.941-0.389v0z"></path>
</svg>
