<!-- Generated by IcoMoon.io -->
<svg version="1.1" xmlns="http://www.w3.org/2000/svg" width="32" height="32" viewBox="0 0 32 32">
<title>unordered-list</title>
<path d="M31.927 6.765h-21.099c-0.485 0-0.879-0.461-0.879-1.029s0.393-1.029 0.879-1.029h21.099c0.485 0 0.879 0.461 0.879 1.029s-0.393 1.029-0.879 1.029z"></path>
<path d="M31.927 13.626h-21.099c-0.485 0-0.879-0.461-0.879-1.029s0.393-1.029 0.879-1.029h21.099c0.485 0 0.879 0.461 0.879 1.029s-0.393 1.029-0.879 1.029z"></path>
<path d="M31.927 20.487h-21.099c-0.485 0-0.879-0.461-0.879-1.029s0.393-1.029 0.879-1.029h21.099c0.485 0 0.879 0.461 0.879 1.029s-0.393 1.029-0.879 1.029z"></path>
<path d="M31.927 27.347h-21.099c-0.485 0-0.879-0.461-0.879-1.029s0.393-1.029 0.879-1.029h21.099c0.485 0 0.879 0.461 0.879 1.029s-0.393 1.029-0.879 1.029z"></path>
<path d="M5.489 9.166c0 1.516-1.229 2.744-2.744 2.744s-2.744-1.229-2.744-2.744 1.229-2.744 2.744-2.744c1.516 0 2.744 1.229 2.744 2.744z"></path>
<path d="M5.489 22.888c0 1.516-1.229 2.744-2.744 2.744s-2.744-1.229-2.744-2.744 1.229-2.744 2.744-2.744c1.516 0 2.744 1.229 2.744 2.744z"></path>
</svg>
