<svg width="100%" height="100%" version="1.1" viewBox="0 0 19.926 14.013" xmlns="http://www.w3.org/2000/svg">
 <g id="_3Pod_Dashboard_Icons_EmailMarketing" transform="translate(-12.472 -15.852)" data-name="3Pod_Dashboard_Icons_EmailMarketing">
  <g id="_3Pod_Panel_de_control_icons_Mail" transform="translate(12.479,15.857)" data-name="3Pod_Panel de control_icons_Mail">
   <path transform="translate(6290.1 974.39)" d="m-6280.1-974.39q4.03 0 8.058 0a1.746 1.746 0 0 1 1.832 1.4 2.219 2.219 0 0 1 0.034 0.463q0 5.117 0 10.235a1.753 1.753 0 0 1-1.87 1.9q-4.167 9e-3 -8.337 5e-3 -3.918 0-7.839 0a1.748 1.748 0 0 1-1.832-1.405 2.153 2.153 0 0 1-0.035-0.463q0-5.117 0-10.235a1.757 1.757 0 0 1 1.9-1.9q4.046-5e-3 8.089 0zm-7.93 1.168c0.083 0.1 0.124 0.16 0.174 0.209q3.584 3.6 7.175 7.2a0.7 0.7 0 0 0 1.129-0.028q3.568-3.577 7.131-7.159c0.058-0.058 0.168-0.1 0.125-0.224zm15.779 11.658a0.909 0.909 0 0 0-0.075-0.121q-2.347-2.359-4.693-4.721c-0.15-0.152-0.233-0.091-0.35 0.028-0.479 0.489-0.96 0.975-1.449 1.454a1.83 1.83 0 0 1-2.624 0c-0.474-0.464-0.946-0.93-1.4-1.412-0.175-0.185-0.274-0.2-0.461-7e-3 -1.485 1.507-2.982 3-4.474 4.5-0.075 0.076-0.187 0.13-0.2 0.277zm-16.636-10.789v9.929a0.9 0.9 0 0 0 0.1-0.074q2.36-2.364 4.722-4.726c0.147-0.146 0.112-0.221-0.014-0.345-0.548-0.537-1.084-1.084-1.627-1.625-1.048-1.044-2.1-2.086-3.18-3.159zm17.522-0.021c-0.077 0.066-0.109 0.091-0.14 0.12q-2.339 2.345-4.685 4.686c-0.182 0.18-0.092 0.26 0.037 0.389q2.287 2.287 4.571 4.578c0.058 0.058 0.1 0.165 0.216 0.139z" fill="#344fff" data-name="Path 4330"/>
  </g>
 </g>
</svg>
