<svg xmlns="http://www.w3.org/2000/svg" xmlns:xlink="http://www.w3.org/1999/xlink" width="71" height="71" viewBox="0 0 71 71">
  <defs>
    <clipPath id="clip-path">
      <rect id="Rectangle_4146" data-name="Rectangle 4146" width="38.197" height="27.051" fill="#344fff"/>
    </clipPath>
  </defs>
  <g id="_3Pod_Dashboard_Icons_DropshippingAliado" data-name="3Pod_Dashboard_Icons_DropshippingAliado" transform="translate(-176 -758)">
    <circle id="Ellipse_894" data-name="Ellipse 894" cx="35.5" cy="35.5" r="35.5" transform="translate(176 758)" fill="rgba(52,79,255,0.1)"/>
    <g id="Group_2857" data-name="Group 2857" transform="translate(190.402 779.974)">
      <g id="Group_2852" data-name="Group 2852" clip-path="url(#clip-path)">
        <path id="Path_10237" data-name="Path 10237" d="M46.685,17.223a5.467,5.467,0,0,1-1.374-1.915.572.572,0,0,1-.23-.348A5.709,5.709,0,0,1,44.791,13a5.491,5.491,0,0,1,5.325-5.347,4.254,4.254,0,0,1,1.953.286c.152.068.312.128.348.321-.01.238-.19.37-.333.524-.966,1.041-2.042,1.969-3.047,2.971a2.064,2.064,0,0,0-.534.866,1.575,1.575,0,0,0,.626,1.841,1.477,1.477,0,0,0,1.815.019A6.179,6.179,0,0,0,52,13.641c1.6-1.663,3.406-3.116,5.009-4.779.074-.077.149-.152.225-.228a.342.342,0,0,0,.029-.506,3.287,3.287,0,0,0-.416-.484A8.71,8.71,0,0,0,53.517,5.2a8.314,8.314,0,0,0-8.351,1.159A8.4,8.4,0,0,0,41.855,11.2a8.338,8.338,0,0,0,.168,4.149A8.77,8.77,0,0,0,43.8,18.874a8.413,8.413,0,0,0,5.643,2.855,8.138,8.138,0,0,0,5.873-1.584A11.176,11.176,0,0,0,56.7,18.973c1.35-1.368,2.773-2.659,4.117-4.033a10.124,10.124,0,0,1,.884-.771c.134-.109.283-.29.461-.21.206.092.119.33.131.512-.009.167-.059.328-.073.494a11.807,11.807,0,0,1-1.714,4.716,11.3,11.3,0,0,1-8.541,5.338A12.816,12.816,0,0,1,46,24.437a5.491,5.491,0,0,1-.528-.211,11.971,11.971,0,0,1-1.6-.792c-.153-.1-.316-.191-.472-.289-.213-.147-.382-.028-.549.09-.977.691-1.946,1.394-2.957,2.034-.832.527-1.592,1.154-2.405,1.705-.3.207-.623.388-.941.572a1.163,1.163,0,0,1-.419.1A.932.932,0,0,1,35.6,27.5a.973.973,0,0,1-.426-.481,1.129,1.129,0,0,1,.491-1.556c1.778-1.253,3.574-2.479,5.365-3.714a2.173,2.173,0,0,0,.227-.169c.154-.345-.2-.433-.334-.62-.1-.138-.23.019-.333.089-1.963,1.353-3.915,2.722-5.882,4.068-.666.456-1.335.906-1.985,1.383a1.447,1.447,0,0,1-1.243.251,1.147,1.147,0,0,1-.118-2.079c.92-.664,1.9-1.24,2.8-1.935,1.731-1.21,3.485-2.387,5.214-3.6.1-.071.276-.121.171-.288s-.233-.042-.335.026c-.809.541-1.6,1.106-2.409,1.649-.61.411-1.215.826-1.8,1.269a1.65,1.65,0,0,1-1.47.47,1.149,1.149,0,0,1-.773-1.23,1.286,1.286,0,0,1,.657-.923c1.282-.9,2.584-1.764,3.86-2.669.358-.254.714-.51,1.082-.748a.807.807,0,0,0,.191-.158.248.248,0,0,0,.03-.327c-.1-.125-.2-.008-.275.045-.827.555-1.64,1.13-2.462,1.691-1.723,1.176-3.429,2.375-5.152,3.55-.685.467-1.362.947-2.043,1.422a1.317,1.317,0,0,1-1.078.356,1.1,1.1,0,0,1-.925-.912,1.145,1.145,0,0,1,.556-1.209c.91-.638,1.842-1.246,2.738-1.9a5.268,5.268,0,0,1,.813-.535c2.287-1.571,4.561-3.16,6.838-4.746a1.311,1.311,0,0,1,.182-.111c.522-.249.54-.287.43-.922-.121-.016-.191.078-.275.135-1.865,1.264-3.7,2.565-5.574,3.822-.542.364-1.069.748-1.6,1.124a1.521,1.521,0,0,1-1.21.28,1.185,1.185,0,0,1-.771-1.254,1.2,1.2,0,0,1,.531-.786,5.781,5.781,0,0,0,.594-.427c1.6-1.017,3.087-2.194,4.684-3.213q.407-.269.79-.572a3.321,3.321,0,0,1,.645-.459c.728-.468,1.435-.968,2.139-1.471a1.582,1.582,0,0,0,.779-1.028.559.559,0,0,1,.258-.4,14.043,14.043,0,0,1,2.956-4.253c.067-.065.126-.138.189-.207a10.9,10.9,0,0,1,4.844-2.587,16.789,16.789,0,0,1,2.628-.377c.442-.037.884,0,1.325-.018a6.614,6.614,0,0,1,2,.2,11.844,11.844,0,0,1,7.781,6A14.639,14.639,0,0,1,61.718,9.3a.794.794,0,0,1-.254.924c-.939.837-1.818,1.736-2.73,2.6-1.652,1.566-3.276,3.166-5.018,4.632a4.982,4.982,0,0,1-4.687,1.12,3.984,3.984,0,0,1-.518-.123,6.414,6.414,0,0,1-1.454-.786c-.159-.117-.335-.225-.371-.446" transform="translate(-24.727 -1.146)" fill="#344fff"/>
        <path id="Path_10254" data-name="Path 10254" d="M9.732,127.107a1.281,1.281,0,0,1,.185.916,1.661,1.661,0,0,1-.719.795q-3.695,2.546-7.382,5.1a1.391,1.391,0,0,1-.813.308L.6,134.134A1.062,1.062,0,0,1,.5,132.276c.091-.127.18-.257.364-.249,2.253-1.513,4.489-3.048,6.693-4.631.4-.243.7-.642,1.234-.661a1.162,1.162,0,0,1,.938.372" transform="translate(0 -117.706)" fill="#344fff"/>
      </g>
    </g>
  </g>
</svg>
