<svg xmlns="http://www.w3.org/2000/svg" width="45.882" height="45.882" viewBox="0 0 45.882 45.882">
  <g id="_3Pod_Dashboard_Icons_EmailMarketing2" data-name="3Pod_Dashboard_Icons_EmailMarketing2" transform="translate(0.425 0.08)">
    <circle id="Ellipse_52" data-name="Ellipse 52" cx="22.941" cy="22.941" r="22.941" transform="translate(-0.425 -0.08)" fill="#344fff" opacity="0.07"/>
    <g id="_3Pod_Panel_de_control_icons_Mail" data-name="3Pod_Panel de control_icons_Mail" transform="translate(12.479 15.857)">
      <path id="Path_4330" data-name="Path 4330" d="M-6280.141-974.387q4.03,0,8.058,0a1.746,1.746,0,0,1,1.832,1.4,2.219,2.219,0,0,1,.034.463q0,5.117,0,10.235a1.753,1.753,0,0,1-1.87,1.9q-4.167.009-8.337.005-3.918,0-7.839,0a1.748,1.748,0,0,1-1.832-1.405,2.153,2.153,0,0,1-.035-.463q0-5.117,0-10.235a1.757,1.757,0,0,1,1.9-1.9Q-6284.184-974.392-6280.141-974.387Zm-7.93,1.168c.083.1.124.16.174.209q3.584,3.6,7.175,7.2a.7.7,0,0,0,1.129-.028q3.568-3.577,7.131-7.159c.058-.058.168-.1.125-.224Zm15.779,11.658a.909.909,0,0,0-.075-.121q-2.347-2.359-4.693-4.721c-.15-.152-.233-.091-.35.028-.479.489-.96.975-1.449,1.454a1.83,1.83,0,0,1-2.624,0c-.474-.464-.946-.93-1.4-1.412-.175-.185-.274-.2-.461-.007-1.485,1.507-2.982,3-4.474,4.5-.075.076-.187.13-.2.277Zm-16.636-10.789v9.929a.9.9,0,0,0,.1-.074q2.36-2.364,4.722-4.726c.147-.146.112-.221-.014-.345-.548-.537-1.084-1.084-1.627-1.625C-6286.795-970.235-6287.847-971.277-6288.927-972.35Zm17.522-.021c-.077.066-.109.091-.14.12q-2.339,2.345-4.685,4.686c-.182.18-.092.26.037.389q2.287,2.287,4.571,4.578c.058.058.1.165.216.139Z" transform="translate(6290.129 974.388)" fill="#344fff"/>
    </g>
  </g>
</svg>
