<svg width="256" height="256" version="1.1" viewBox="0 0 67.733 67.733" xmlns="http://www.w3.org/2000/svg">
 <rect x="1.8635e-6" y="1.8635e-6" width="67.733" height="67.733" ry="0" fill="none" stop-color="#000000" style="-inkscape-stroke:none"/>
 <path d="m33.929 20.482q7.7053 0 15.407 0a3.3383 3.3383 0 0 1 3.5028 2.6768 4.2427 4.2427 0 0 1 0.06504 0.88525q0 9.7836 0 19.569a3.3517 3.3517 0 0 1-3.5754 3.6328q-7.9673 0.01735-15.94 0.0094-7.4912 0-14.988 0a3.3422 3.3422 0 0 1-3.5028-2.6863 4.1165 4.1165 0 0 1-0.0672-0.88525q0-9.7836 0-19.569a3.3594 3.3594 0 0 1 3.6328-3.6328q7.7359-0.0094 15.466 0zm-15.162 2.2332c0.15869 0.19121 0.2371 0.30589 0.3327 0.39962q6.8526 6.8832 13.719 13.766a1.3384 1.3384 0 0 0 2.1586-0.05347q6.822-6.8392 13.634-13.688c0.11093-0.11093 0.32121-0.19121 0.23898-0.42831zm30.169 22.29a1.738 1.738 0 0 0-0.14337-0.23139q-4.4874-4.5104-8.973-9.0265c-0.28682-0.29065-0.44551-0.17401-0.66917 0.05348-0.91584 0.93496-1.8355 1.8642-2.7705 2.78a3.4989 3.4989 0 0 1-5.0171 0c-0.90628-0.88718-1.8087-1.7782-2.6768-2.6997-0.33458-0.35373-0.52392-0.38242-0.88143-0.01373-2.8393 2.8814-5.7016 5.736-8.5542 8.6039-0.14337 0.14532-0.35756 0.24859-0.38242 0.52962zm-31.808-20.628v18.984a1.7208 1.7208 0 0 0 0.19121-0.14149q4.5123-4.5199 9.0284-9.0361c0.28104-0.27916 0.21412-0.42253-0.02674-0.65963-1.0478-1.0267-2.0726-2.0726-3.1108-3.107-2.0038-1.9961-4.0152-3.9884-6.0801-6.04zm33.502-0.04047c-0.1472 0.12617-0.20841 0.17401-0.26767 0.22944q-4.4721 4.4836-8.9577 8.9596c-0.34795 0.34412-0.17589 0.4971 0.07082 0.74376q4.3727 4.3727 8.7397 8.7531c0.11092 0.11093 0.19121 0.31551 0.41299 0.26579z" fill="#344fff" stroke-width="1.912" data-name="Path 4330"/>
</svg>
